<?xml version="1.0" encoding="UTF-8"?>
<svg xmlns="http://www.w3.org/2000/svg" viewBox="0 0 1038.03 1027.05">
  <defs>
    <style>
      .cls-1 {
        fill: #094eff;
      }

      .cls-1, .cls-2 {
        stroke-width: 0px;
      }

      .cls-2 {
        fill: #fff;
      }
    </style>
  </defs>
  <g id="_Слой_2" data-name="Слой 2">
    <path class="cls-1" d="M233.7,860.04c-.4.4-13.5-10.7-13.5-11.4,0-.2,3.1,2.2,7,5.3,3.8,3.1,6.8,5.9,6.5,6.1Z"/>
    <path class="cls-1" d="M415.2,412.54c-12.9,2.7-20.7,3-31,1.3-18.5-3-29.9-8-36.4-15.9-10.5-12.8-12.4-29.9-5.4-47.9l2.2-5.7,3.1,1.9c1.6,1.1,22.7,14.3,46.7,29.2,24.1,15,43.8,27.6,43.8,27.9,0,1.4-16,7.8-23,9.2Z"/>
    <path class="cls-1" d="M422.7,545.94l22.3-15.7.5-29.3c.4-24.7.8-30.5,2.5-37.7,3-12.5,7.6-24.5,12.2-31.5,4.5-6.9,16.9-19.6,24.5-25.1,14.9-10.8,31.7-13.8,47-8.4,12.3,4.3,21.8,12.6,32,28,6.7,10.2,9.9,17.8,14.7,36,3.1,11.4,3.1,11.7,3.3,39.5l.2,28,21.4,14.8c11.8,8.1,22.3,15.4,23.4,16.1,1.9,1.2,1.2,1.9-9.5,8.8-9,5.9-14.2,10.3-23.7,20.1-19.8,20.4-30,35.4-43.9,64.8-8.5,18.1-11.9,27.3-24.6,65.2-9.6,28.8-10.4,30.7-11.5,28-.6-1.5-4.2-12-7.8-23.3-3.7-11.3-8.6-25.5-11-31.5-2.4-6.1-6-15.6-8-21.3-3.7-10.8-20-43.4-26.8-53.7-2.2-3.3-7.4-10.6-11.6-16.1-6.8-9.1-8.8-11-19.1-18-11.4-7.7-27.5-19.8-28.4-21.2-.2-.4,9.6-7.8,21.9-16.5Z"/>
    <path class="cls-1" d="M611.2,412.84c-6.7-1.9-20-7.8-19.7-8.8.1-.4,21.1-13.8,46.7-29.8l46.5-29,1.8,4.2c1,2.4,2.5,6.8,3.3,9.8,4.5,17.3-1.7,36-15.2,45.6-5.5,3.9-16.4,7.6-27.7,9.4-9.3,1.5-27.6.8-35.7-1.4Z"/>
    <path class="cls-1" d="M288.6,226.44c-5-9.9-4.1-24.4,2-34.1,3-4.7,10.8-11.8,33.6-30.8,30.2-25.2,60.6-42.2,96.1-53.8,19.2-6.3,50.3-12.6,63.1-12.8,5.3-.1,9.1-.5,8.5-.9-1.1-.7,4-1.3,13.8-1.6,2.7-.1,13.5.7,24,1.7,10.4,1.1,24.9,2.5,32,3,25.1,1.9,64.2,14.4,90.5,28.9,29.8,16.4,39.6,23.7,72.9,54.6,13.6,12.6,17.9,17.2,19.7,21.1,2.8,6,3.1,12.7.7,18.6-5.8,14.7-77.7,81.1-114.3,105.6-28.6,19.1-61.4,38.3-65.5,38.3-.9,0-7.1-2.7-13.8-6-16.5-8.1-22.1-9.5-38.2-9.5-12.6.1-13.3.2-23,3.9-5.5,2.1-13.4,5.6-17.5,7.8-6.4,3.4-8.1,3.9-11.5,3.3-4.6-.7-3.5-.1-31.5-18-26.1-16.7-40.7-26.9-56.5-39.5-6.6-5.3-16.9-13.4-23-18-23.9-18.4-56.8-51.1-62.1-61.8Z"/>
    <path class="cls-1" d="M848,734.04c1,12.9-8.6,23.2-21.7,23.2-6.8,0-9.2-1.1-18-8.2-9.2-7.3-12.9-9-20.1-9.1-6.7,0-13.3,2.7-17.6,7.4-1.7,1.9-10.4,15.3-19.3,29.9-17.5,28.7-22.4,34.6-32.3,39.3-15.9,7.6-33.2,4.7-47.8-7.9-13.8-11.9-31-14.3-46.9-6.6-10.2,5-13.5,9.5-49.1,66.1-18.4,29.3-34.8,54.6-36.4,56.2-3.3,3.2-7.9,4.4-13.1,3.5-3.9-.8-9.1-4.7-10-7.7-.6-1.8-.9-1.7-2.8,1.3-4.2,6.2-12.4,8.4-19.3,5.2-3.9-1.9-1.9,1.1-39.4-58.4-37.6-59.7-35.5-56.6-41.4-61.2-16.5-13.1-38.4-12.5-54.6,1.7-6.5,5.6-15.8,10.3-22.7,11.4-7.5,1.2-18.7-.4-25-3.5-10.1-4.9-14.9-10.7-32.4-39.4-8.9-14.6-17.6-28-19.3-29.9-4.3-4.7-10.4-7.2-17.5-7.2-7.5-.1-10.9,1.5-20.2,8.9-8.8,7.1-11.2,8.2-18,8.2-12.2,0-21.8-9.2-21.9-21,0-2.8,3.4-16,9-35,10.4-35.1,19.6-76.7,23.7-107l2.7-19.5.6-102.5.5-102.5,3.7-17c6.9-31.9,12.9-56,14.9-60.2,2.6-5.4,10.6-12.7,16.2-14.7,6.2-2.3,19.9-1.6,25.3,1.2,5.5,2.8,15.7,14.1,19.1,21.1,3.8,7.6,4.4,19.2,1.5,28.3-5.4,17-8.7,39.1-7.6,50.8,1.8,19.2,7.4,31.7,20.2,45.2,10.8,11.3,18.7,17.3,31,23.6,12.8,6.5,26,10.6,40.7,12.7,6.6.9,13.1,2.3,14.3,3.1,4.3,2.8,5.3,7.2,4.9,21.2-.6,19.4-3.9,24.9-20.7,34.6-15.2,8.8-23.1,18.6-26.5,32.7-1.9,8.2-1.9,15,0,22.4,3.4,13,12.6,24.6,25,31.6,15.4,8.6,37.1,35.2,50.2,61.3,11.3,22.5,22.7,49.7,30.8,73.1,4,11.5,11.1,30.9,15.8,43,10.6,27.6,9.7,24.6,15.2,52.5,4.3,21.9,5.2,25.2,13.6,47.5,4.9,13.1,9.1,24.1,9.3,24.2.2.2,4.4-10.5,9.4-23.9,8.5-22.7,9.4-25.9,14.1-49.4,4.7-23.9,5.4-26.3,14.1-49,5-13.2,12.4-33.4,16.5-44.9,8.3-23.9,19.8-51.1,30.7-73,13.5-26.8,31.7-49.1,49.8-61,15-9.8,22-18.6,25.5-32.2,1.9-7.2,1.9-14.1,0-22.2-3.4-14.1-11.3-23.9-26.5-32.7-16.7-9.7-20-15.1-20.5-34.2-.7-20.6.6-22.3,19-24.8,14.8-2,28-6.1,40.7-12.6,23.1-11.8,41.9-31.8,48.2-51.3,5.2-16.5,3.3-44.2-5-69.8-2.5-7.5-1.6-19.8,1.8-26.8,3.5-6.9,12.6-17.1,18.5-20.6,6.2-3.6,17.8-4.4,25.4-1.7,6.4,2.3,14,9,16.8,14.8,2.1,4.3,8.2,28.8,14.9,60.1l3.6,17,.6,102.5.7,102.5,2.6,19.5c4.1,30.4,13.3,71.9,23.3,105.5,4.8,15.9,8.9,31.4,9.2,34.3Z"/>
    <path class="cls-1" d="M957.9,464.44c.2,1,.2,2.6,0,3.5-.3,1-.5.2-.5-1.7s.2-2.7.5-1.8Z"/>
  </g>
  <g id="_Слой_1" data-name="Слой 1">
    <g>
      <path class="cls-2" d="M1037.7,479.24c-.3-11.8-.6-22.5-.6-23.8.1-1.3-.3-3.1-.8-4.1-.9-1.6-2.6-12.4-3.5-22.6-.8-7.9-1.8-13.5-2.5-13.5-1.1,0-3.5-13.1-2.5-13.9.5-.3.6-2.6.3-5.1-.4-3.4-.6-3.7-.7-1.5-.1,1.7-.6,3.5-1.1,4-.4.6-.2,4.1.5,8,3.8,19.8,4.5,25,3.5,25.3-.6.2-.9.7-.6,1.1.8,1.4,3.4,41.8,2.9,45.3-.3,1.9-.2,5,.3,6.9,1,3.5-.6,26.2-1.9,27.4-.3.4-.6-13.8-.6-31.4s-.3-32.4-.6-32.9-.8-6-1.1-12.3c-.3-6.3-1.5-17-2.6-23.9-1.2-6.9-2.3-13.6-2.5-15-.6-4.5-2.2-11.4-3.9-17-2.4-8.1-3.6-14.1-2.9-15.1.3-.5.1-.9-.4-.9s-1.4-1.1-2-2.5c-1.6-3.5-1.5-4.3.3-1.9q1.4,1.9,1.5-.2c0-1.2-1.2-3.8-2.6-5.9-1.4-2.1-2.3-4.3-2-5,.2-.7-.6-3.3-2-5.8-1.3-2.6-2.4-5.4-2.3-6.4,0-1,.7.1,1.6,2.4.8,2.4,1.9,4.3,2.5,4.3s.7-.7.4-1.6c-.3-.9-.9-2.8-1.2-4.2q-.6-2.6.9-.7c2.2,2.7,2.1,2-.7-4.9-1.3-3.3-2.2-6.6-1.9-7.4.3-.8.2-1.7-.3-2.1-1.2-.8-5.9-10.6-7.4-15.4-1.3-4.2-2.4-5.1-1.4-1.1s-1.2,2.1-2.6-2.2c-.7-2-3-7.4-5.1-12-4.3-9.4-5.2-13.3-1.3-6.4,1.3,2.5,2.2,3.4,1.8,2-1-3.9-10.5-23.5-11.5-23.8-.5-.2-.6-.9-.3-1.4.4-.6.3-.8-.3-.5-.5.3-1.8-1-2.7-3-1-2.1-3.4-6.2-5.4-9.2s-3.7-6-3.8-6.6c-.5-4.2-.4-4.1-1.5-2.5-.9,1.3-1,1.2-.5-.3.6-1.8-1.2-6.7-2.5-6.7-.4,0-.9.5-1.1,1.2-.2.6-1.5-.6-2.8-2.8-3.6-5.7-3.6-6.3,0-2.4,3.6,3.9,3.2,2.7-1.4-4-7.1-10.4-9.7-15.3-8.4-16.1.6-.4,1.6-.5,2-.3,4.1,2.6-8.5-13.7-23.3-30.2-6.1-6.7-11.7-12.5-12.5-12.8-.8-.3,2.5,3.8,7.3,9.2,4.9,5.3,11,12.5,13.7,15.9,2.7,3.5,5.2,6.3,5.5,6.3.7,0,8.1,9.4,8.1,10.2,0,.3-.9.8-2.1,1.1-2,.5-2,.7-.4,3.1,1,1.4,1.3,2.6.8,2.6s-1.7-1.4-2.6-3c-1-1.7-1.7-3-1.5-3s-2.1-2.6-5.2-5.8c-5.9-6.1-29-33.2-32.8-38.5-4.4-6.2-17.7-19.2-49.2-48.1-7.3-6.7-29-23.3-36.2-27.8-2.7-1.6-5.1-3.5-5.5-4.1-.5-.7-3.6-2.5-7.1-4.2-3.5-1.6-6.8-3.6-7.5-4.4-1-1.2-.9-1.3.3-.7.8.4.6.1-.4-.8-1-.8-2.3-1.3-2.8-1-1.2.8-5.9-1.6-5.3-2.7.3-.4-1.7-1.5-4.4-2.4-2.7-.9-5.5-2.3-6.3-3.2-1.1-1.5-1.1-1.6.5-1,1.1.4,1.6.3,1.2-.4-.4-.6-1.4-.8-2.2-.4-.9.3-3-.5-4.7-1.8-3.6-2.8-12.6-7.7-14.1-7.7-.5,0-2.6-1.4-4.5-3.1-3.2-2.7-3.3-3-1-2.3,1.4.4,9.6,4.2,18.4,8.6,8.7,4.4,16,7.7,16.3,7.4.3-.2-1.9-1.7-4.9-3.2-24.9-12.7-39.2-19.7-46.2-22.5-4.4-1.7-10.3-4.3-13.1-5.6-13.7-6.6-47.5-18.3-61.8-21.4-9-1.9-13.5-1.9-6.1,0,2.2.5,7.5,1.9,11.9,3,10.9,2.8,35,11.2,36.4,12.7,1.3,1.5-12.7-2.2-20.3-5.3-3.6-1.5-6.2-2-6.5-1.4-.4.6-2.1.7-4.6.1-2.2-.4-9.4-1.8-16-3-6.6-1.2-13.6-2.8-15.5-3.6-1.9-.7-8.1-2.3-13.7-3.5-5.7-1.2-10.3-2.6-10.3-3.1,0-.4-1.2-.8-2.6-.8-1.6,0-2.3.4-1.8,1.1.5.8-.3,1-2.7.6-1.9-.4-5.4-.8-7.9-1.1-2.5-.2-9.9-.8-16.5-1.4-10.2-1-33.3-2-46.7-2.2-2.8,0-3.6-.4-3.2-1.4.4-1.1-.8-1.5-5.4-1.8-3.3-.1-7.3,0-8.8.3l-2.9.7,2.8.1c1.5,0,2.7.5,2.7,1.1s-3.9,1-9.7,1c-8.6,0-27.4.9-54.8,2.5-4.4.2-10.6-.1-13.8-.7-4.5-1-6.2-.9-7.7,0-2.2,1.4-16,1.7-16,.4,0-.5,1-1.4,2.3-2.1,1.9-.9,1.9-1,.2-.7-1.1.3-4,.8-6.5,1.1-2.5.4-4.9,1-5.5,1.4-.5.3-2.6,1.1-4.5,1.7l-3.5,1.2,3,.1,3,.2-3.4,1.4c-1.8.8-4.3,1.5-5.5,1.6-2,0-2,.1-.1.9,1.7.6,1.5.8-1.5,1.3-1.9.3-6.8.9-10.9,1.2-4.1.3-8.6.8-10,1-1.5.3-.9-.1,1.3-1,2.1-.8,6.8-2,10.5-2.7,3.6-.6,5.8-1.4,4.7-1.6-1-.2-3.9.1-6.5.8-6.7,1.7-20.9,2.4-19.4.9.6-.6,2.6-1.5,4.5-2,2.4-.6,1-.8-5.3-.6-6.2.2-9.4.8-11.4,2.1-2.3,1.5-7.7,2.9-15.5,4-1.4.2-4.1,1-6,1.8-4.1,1.8-15.4,3.3-14.6,1.9.3-.5-.4-1.1-1.6-1.5-1.4-.3-2.6,0-3.1.9-.4.8-1.7,1.5-2.7,1.5s-2.1.4-2.4.9c-.4.5-3.4,1.8-6.9,3-7.8,2.5-20.2,8-19.5,8.6.3.3,3.3-.8,6.6-2.5,3.4-1.7,7.6-3.3,9.4-3.6,3.1-.5,3.2-.5,1.4,1-1.1.9-2.7,1.6-3.6,1.6s-3.8,1.1-6.6,2.4c-13.9,6.7-22.6,9.8-14.4,5.1,2.7-1.6,3.5-2.3,2-1.9-3.7.9-22,9.7-22,10.6,0,.4-2.1,1.9-4.7,3.2-2.7,1.3-7.5,4.3-10.8,6.5-3.3,2.3-6.4,4.1-7,4.1-.5,0-.3-.5.5-1,1.3-.8,1.3-1-.2-1-.9,0-2.4,1-3.3,2.2-.8,1.3-1.8,2.2-2,2-.3-.1-.4-.1-.3,0,.6.9-2.6,4.8-3.9,4.8-1.4,0-1.4-.3.3-2.2,2.5-2.9-10.4,5.9-13.3,9-1.3,1.4-2.6,2.2-2.9,1.9-.9-.9-6.4,2.1-6.4,3.5,0,.7.7.5,1.8-.4,3.3-2.8,4.7-3.1,2.3-.5-1.4,1.5-2.9,2.7-3.5,2.7s-4.2,3-8.1,6.7c-3.8,3.7-7.9,6.7-9,6.8-1.1.1-1.9.8-1.8,1.6.1.8-4.4,5-9.9,9.4-14.1,11.3-15.2,12.2-23.3,19.7-8.1,7.4-21.7,21.5-34.5,35.8-4.7,5.2-11,12-14,15-3,3.1-7.2,7.8-9.2,10.6-2,2.7-4.6,5.8-5.8,6.9-2.5,2.2-15.8,21.7-16.7,24.3-.3.9.4.2,1.6-1.6,1.1-1.7,2.3-3.2,2.6-3.2.9,0-2.4,5.9-3.8,6.7-2.1,1.3-8.8,13.3-10.4,18.8-.9,3.1-2.8,6.2-4.8,8-3.5,3.3-9.5,13.4-9.5,16.3,0,.9-1.4,3.3-3,5.2l-2.9,3.5.8-3c.5-1.7,4.3-9.9,8.4-18.3,4.2-8.4,7.2-15,6.7-14.7s-4.1,7-8.1,14.8c-3.9,7.8-8,15.4-9.1,16.9-1,1.5-2.5,4.6-3.3,7-.8,2.4-1.9,5.2-2.5,6.3-.5,1.1-2.6,6-4.6,10.9-2,5-4.2,9.9-4.9,11-.7,1.2-1.8,3.9-2.5,6.1s-1.6,4.4-2,5c-3,4.2-18,54.9-16.6,56.2.5.5,1.7-3.7,3.6-12.1,1.5-6.7,7.9-26.7,9.4-29.1.7-1.1,1.8-4,2.5-6.3.7-2.4,1.4-4.2,1.7-3.9.7.7-3.2,15.8-5.5,21.1-1.6,3.6-1.9,5.1-1,5.7.6.4.9,1.1.6,1.6-.4.6-1.1,4.3-1.7,8.4-1.2,8.4-4.9,24.9-5.8,26.4-.4.5-.8,2.1-1,3.4-.2,1.4-1,5-1.9,8-.8,3.1-1.8,6.8-2,8.4-.3,1.5-.9,3-1.4,3.3-1.2.7-1.1,4.4.1,4.4.6,0,1,1.6,1,3.6,0,2.1-.4,3.3-1,2.9-.6-.4-.7-1.2-.4-1.8.5-.9.3-.8-.6,0-1.1,1-1.1,2-.2,5,.7,2.3.8,4.1.2,4.8-.5.6-.8,2.1-.5,3.4.2,1.2.1,2-.3,1.7-.4-.2-.8,8.9-1,20.2-.2,11.4-.7,22.3-1.2,24.2-.5,1.9-1,5.5-1.2,8s-.6,4.7-1,5.1c-1,.7-1.4,17.6-.5,18.5.4.4.7-.9.7-2.9s.5-3.7,1-3.7c.6,0,1,4.3,1,10.7.1,18.3,2.1,48.4,4.5,67.8.5,3.7.4,4.6-.4,3.5-.8-1.2-1.1-.7-1.1,2,0,2,.5,4.1,1.1,4.7.7.7,1.3,3.3,1.5,6,.2,2.6,1,7.5,1.8,10.8.9,3.3,2.2,10.4,3.1,15.9.8,5.4,1.7,10.2,1.9,10.5.3.4.5,4,.6,8.1.2,5.7,1.3,11,4.7,22,2.5,8,5.5,17.4,6.6,21,1.1,3.6,2.3,6.7,2.6,7,1.1.8,5.1,12.5,5.1,14.9,0,1.2.9,3.9,2,6.1,1.1,2.2,2,4.6,2,5.4s.5,1.8,1.2,2.2c.8.5.9.2.5-.9-1.3-3.5.4-1.5,2.8,3.3,2.8,5.4,3.3,8.5,1,5.4q-1.4-1.8-1.5-.1c0,1.8.8,4,3.9,10.7,1.1,2.5,1.1,2.2-.5-4.5-.7-2.7-.6-2.9.9-1.6,1,.7,1.7,2.5,1.7,4s.5,3.2,1.1,3.8c.6.6,1.6,2.8,2.4,4.9.7,2.2,1.9,3.9,2.7,3.9.7,0,1.3.7,1.3,1.5.1,2.6,1.6,6.1,2.5,5.5,1-.6,2.2,2.3,1.4,3.6-.3.5-.1.9.5.9.5,0,1.6,1.2,2.4,2.8.8,1.5,4.4,7.9,8.1,14.1,6.5,11.2,7.6,13.8,5.6,12.6-.5-.3-1-.4-1-.1,0,1.2,11.6,19.4,16.7,26.2,2.9,4,5.3,7.6,5.3,8.1s1.6,2.4,3.5,4.3c1.9,1.8,3.2,3.7,2.9,4.2-.3.4-.1.8.5.8s.8.7.5,1.5c-.4.8-.1,2.1.5,2.9,1.5,1.8.1,2.9-1.8,1.3-1.4-1.1-1.4-1-.2.5,1.4,1.9,7.1,5.1,7.1,4,0-.4-.7-2-1.5-3.6-1.1-2-1.1-2.5-.2-1.8,2.4,2,7.8,10.2,6.8,10.2-.6,0-1.5-.9-2.1-2-1.3-2.5-3.5-2.7-2.6-.3.5,1.3,0,1.1-2-.7-1.9-1.7-1.4-.7,1.6,3.2,2.3,3.2,4.4,5.8,4.6,5.8.3,0-.3-1.5-1.1-3.3l-1.6-3.2,2.8,3.2c6.1,7.1,8.3,10.1,8.3,11.7,0,.9.5,1.6,1,1.6.6,0,1,.7,1,1.6,0,1-.5,1.2-1.3.7-.6-.4,1.5,2.3,4.7,5.9,3.3,3.7,6.4,6.4,6.8,6.2.8-.5,8.3,6.6,14.1,13.4,4.3,5.1,1.3,3.7-4.7-2.2-3.1-3-5.2-4.6-4.7-3.7,1.5,2.7,36.1,35.8,36.1,34.5,0-.9,12.1,7.9,18,13.2,3.2,2.8,7.9,6.1,10.6,7.4,6.7,3.2,13.6,7.9,12.9,9-.3.4,1.2,2,3.3,3.6,2.2,1.7,3.1,2,2.1.8-.9-1-1.9-2.6-2.2-3.5-.5-1.5-12.9-10.8-14.5-10.9-1.3-.1-11.7-8.6-11.4-9.4.2-.4-2.3-2.8-5.5-5.3-3.2-2.4-7.1-5.7-8.8-7.3-1.6-1.5-7.4-6.7-12.8-11.5-5.3-4.8-9.7-9-9.7-9.4s-1.3-1.5-3-2.4c-3-1.8-20.3-21.7-19.5-22.5.2-.2,8.6,7.9,18.7,18s23.3,22.6,29.3,27.8c6.1,5.1,11.8,10.4,12.8,11.7,1,1.2,7.3,6.1,14,10.7,6.7,4.7,12.7,8.9,13.2,9.3,5,3.9,8.6,6.3,12,7.7,2.2.9,6.6,3,9.7,4.6,6.5,3.5,6.8,3.5,6.8,1.5,0-1.6,1.6-2.1,2.2-.7.1.5,5,3.3,10.7,6.3,5.7,3,9.7,5.5,8.9,5.7-.9.2-4.3-1.1-7.5-2.9-3.2-1.8-5.6-3-5.3-2.6.9,1,8.1,5.7,8.8,5.7.6,0,10.8,4.8,12.1,5.7.2.1-.1.9-.8,1.7-.9,1.1-.9,1.5.1,2,.7.3-.9.4-3.7.1l-5-.5,4.5,2.1c2.5,1.1,6.1,2.3,8,2.5l3.5.5-2.7-1.6c-1.6-.9-2.8-1.8-2.8-2.1s.4-.2,1,.1c.6.3,1,.2,1-.4,0-.5-.4-1.2-.9-1.6-1.1-.6-1-4.5.1-4.5.4,0,1,.5,1.3,1,.4.6,2.5,2,4.8,3.1,2.3,1.2,4.5,2.7,4.9,3.3.4.6,1.3,1.1,2,1.1,1.4.1,1.9.3,17.6,7.7,5.7,2.6,11.5,5.1,13,5.4,4.7,1,11.6,3.7,13.3,5.1.8.7,2.1,1.3,2.8,1.3.6,0,4,1,7.4,2.1,3.4,1.2,7.5,2.1,9,2,1.6-.1,2.6.2,2.3.7-.2.4.5.8,1.7.9,1.2.1,3.3.4,4.7.7,3.5.8,9.4,2,10.3,2.1.4,0,1.1.4,1.5,1,1.1,1.5,5.2,3.6,6.1,3.1.4-.3,2.9.1,5.6.9,2.6.8,6.7,1.5,8.9,1.5,2.3.1,5.2.7,6.6,1.5l2.5,1.5-2.7-.4c-1.5-.3-3.1.1-3.7.8-.7.8-.5,1.2.7,1.3.9.1,3.6.4,6,.7,2.5.3,4.2.1,4.2-.5s-.4-.8-.8-.5c-.4.2-1.4.1-2.2-.5-1.1-.6-.7-.9,1.6-.9,2,0,3.4.6,3.8,1.6.3.8.2,1.2-.4.9-.6-.3-.7.1-.4.9.7,1.8,4.4,2.2,4.4.5,0-.5-.4-.7-1-.4-1.2.7-1.3-.5-.1-2.3.6-1,2.2-1.1,5.9-.6s5.2.3,5.2-.5c0-.7.3-1,.8-.8.4.3,5,.8,10.2,1.1,14,.9,21.5,1.6,31.3,2.7,4.8.5,11.9,1,15.7,1,4.4.1,6.8.5,6.4,1.1-.4.6,1,.8,3.7.4,5.3-.6,19-1.5,35.4-2.1,10.7-.4,17.8-.9,32.5-2,2.5-.2,8.7-1.1,13.9-2,5.1-.9,9.9-1.4,10.5-1.2.7.3,2-.1,3.1-.9,1-.8,3.3-1.4,4.9-1.4,1.7,0,4.9-.7,7.1-1.4,2.1-.8,5-1.2,6.3-1,1.2.3,4.5-.7,7.3-2.1,2.7-1.3,4.7-2,4.4-1.5-.4.6,1.7.1,4.7-1.1,6.8-2.7,15.7-5,18.6-5,1.2.1,5.6-1,9.8-2.4,7.5-2.5,14.6-3.4,11.4-1.6-.8.5-9.5,3.6-19.3,7-9.8,3.3-18.5,6.5-19.5,7.1-1.5,1-1.5,1.1.2.5,1.1-.3,4.3-1.3,7-2.2,13.5-4.1,30.6-9.7,34.6-11.3,24.3-9.4,24.2-9.4,21.9-10.2-1.4-.6-3.4-.4-5.1.3-1.6.6-3.1.9-3.5.6-.3-.4.5-1,1.8-1.5,5.8-2.2,8.6-2.8,10.9-2.2,2.2.5,2.3.7.6,1.3-1,.4-1.7,1-1.4,1.2,1,1,11.9-3.6,35.8-15.2,16.2-7.8,33.6-18,32.6-19-.2-.3-5.1,2.4-10.8,5.8-12.1,7.3-31.9,16.9-36,17.4-1.6.2-3.6.9-4.4,1.5-.7.7-2.2.9-3.1.6-1.3-.5-.4-1.5,4.2-4.1,3.3-1.9,6.7-3.4,7.5-3.4.9,0,.5.6-1,1.4-1.5.9-1.9,1.4-1,1.5.9,0,3.1-1.1,5.1-2.4,1.9-1.3,6.4-3.6,10-5.1,5.7-2.4,11.4-5.7,6.7-4-3.2,1.2-1.9-.3,3-3.6,16.4-11.3,24.1-16.2,27-17.5,1.9-.7,5-2.7,7-4.3,3.9-3,11.8-7.1,13.8-7.1s3.7-2.7,2.3-3.5c-.7-.5.5-1.8,3.4-3.6,2.5-1.5,4.8-3.3,5.2-3.9.4-.6,2.5-2.4,4.7-4,5.6-4.1,13.3-10.7,19.3-16.5,19.6-19.2,24.7-23.6,25.8-22.6.9.7,2.9-.6,7-4.5,3.1-3,5.7-5.7,5.7-6.1,0-.3-.8.1-1.8.9-7.8,6.8-4.1,1,6.5-9.8,4.8-4.9,12.7-13.3,17.4-18.5,15.5-17,15.6-17.1,10.9-10.6-2.2,3.1-3.7,5.7-3.3,5.7,1.6,0,9.4-11,8.7-12.3-.4-.6-.4-.9,0-.5.9.7,4.6-2.7,4.6-4.2,0-1.7,3.8-8.8,5.1-9.6.9-.5,1,0,.6,1.7-.6,2.2-.5,2.1,1.9-.6,1.4-1.7,3.2-4.6,4-6.5.9-1.9,2.8-4.9,4.3-6.5,1.5-1.7,4.5-5.9,6.6-9.5,5.3-8.9,14.5-21.5,20-27.5,2.7-3,7.1-9.9,10.7-17,3.3-6.6,6.4-12.2,6.8-12.5,1.1-.7,7-13.3,7-14.8,0-1.6,4.8-11.2,6.5-12.9.7-.7,2.1-3.4,3.1-6,1-2.7,3.7-8.6,5.9-13.3,5.5-11,7.5-15.8,7.5-17.3,0-.7-1.3,1.5-2.9,4.8-2.4,4.9-3,5.5-3,3.4-.1-1.5.6-3.2,1.4-3.9s1.5-1.9,1.5-2.7.8-3.3,1.9-5.6c1-2.3,2.2-6.5,2.6-9.2.4-2.8,1-5.5,1.5-6,.4-.6,1.1-2.6,1.5-4.5l.8-3.5,1.2,4c1.1,3.8,1.2,3.9,2.3,1.8.7-1.2,1.2-3.1,1.2-4.2s.7-2.6,1.5-3.5c.8-.8,1.5-2.4,1.5-3.4,0-1.1.6-3.3,1.4-4.9,1.6-3,3.6-9.5,8.1-25.8,1.5-5.5,3.6-13,4.6-16.6,1.1-3.6,1.9-8.1,1.8-10l-.1-3.4-1,4c-.5,2.2-1.8,7.8-2.9,12.5-1.1,4.7-2.7,10.5-3.6,13-1.3,3.6-1.7,4.1-2.3,2.5-.5-1.5-1.1-.4-1.9,4-1.6,7.9-4.1,14.7-5.9,16.2-.8.7-1.4,3-1.4,6,0,4.5-2.5,13-2.7,9-.1-.9-.5-1.7-1-1.7-1.1,0,.1-5.6,3.6-17.3,1.5-4.9,3-8.3,3.4-7.6.8,1.4.9,1.1,4.2-13.1,1.4-5.8,2.8-13,3.2-16,.3-3,1.1-6.9,1.6-8.5.5-1.7,1-5.3,1.2-8.2.3-3,1.1-5.8,2.1-6.8.9-.9,1.6-2.3,1.6-3.1s.5-1.2,1-.9c.6.3,1.3-.1,1.7-1,.3-1,.1-2-.5-2.4-.6-.4-.9-1.7-.5-2.9.3-1.2.9-1.9,1.4-1.6s.9-.7.9-2.3c0-1.5.3-3.9.5-5.3.3-1.6,0-1.2-.9,1l-1.4,3.5-.1-4.2c-.1-2.3.4-4.5.9-4.8.6-.3.7-1.8.4-3.1-.4-1.4-.2-3.5.4-4.7.6-1.2,1.3-3,1.6-4,.3-1,1-1.5,1.6-1.2,1.3.8,1.3-14.8,0-16.1-.7-.7-.3-2.3,1.1-4.9,1.9-3.8,2-5.1,1.4-25.5ZM965.7,457.04c-.4-.4-.7-3.2-.6-6.1.1-4-.4-5.8-1.6-6.8-1.5-1.3-1.5-1-1,3.1.4,2.5.9,11.2,1.2,19.5.3,8.2.8,16,1.1,17.2.5,2.5-2.1,34.5-3.7,44.3-.5,3.5-1.4,6.9-1.9,7.6-.6.6-.8,1.3-.5,1.6.9.8-3.4,28.2-6.5,41.3-3.8,16-6.8,28.2-7.6,31.4-.5,1.7-.4,2.2.4,1.7,1.7-1,1.6-.5-1.6,8.2-1.6,4.2-4.3,12.2-6.1,17.7-3,9.4-8,21.4-12.2,29.6-1.1,2-1.9,4.4-1.9,5.2,0,.9-1.1,3.3-2.5,5.3-1.4,2-2.5,4.5-2.5,5.6s-1.1,3.4-2.5,5.2c-1.4,1.8-2.5,3.6-2.5,3.9s-2.2,4.5-5,9.3c-2.7,4.8-5,8.9-5,9.1,0,.3-.9,1.6-2,3-1.1,1.4-2,3.4-2,4.4s-1.1,2.6-2.5,3.5c-1.4.9-2.5,2.3-2.5,3.1,0,.7-.8,2.6-1.8,4.1-1.1,1.5-4.7,7-8.2,12.2-5.6,8.5-18.4,26-21.8,30-.7.8-4.7,5.8-8.9,11-12.8,16.1-36.8,41.8-38.6,41.2-.5-.1-.6.1-.3.6.3.5-2.7,3.7-6.7,7.2-4,3.6-10.3,9.5-14.2,13.1-7.7,7.4-32.5,26.6-35.9,27.9-1.2.4-2.8,1.6-3.6,2.5-.8,1-2.1,2-3,2.4-.8.3-8.9,5.5-18,11.5-28,18.6-78.9,42.9-106,50.6-19.7,5.6-23,6.4-23,5.1,0-.9,4.5-2.5,16-5.6,8.2-2.1,15.2-4.6,14.8-5.1-.2-.2-2,.1-3.9.6-1.8.5-7,1.9-11.4,3-4.4,1.2-9.6,2.5-11.5,2.9-1.9.5-4.6,1.3-6,1.9-2.9,1.2-18.2,4.7-19.2,4.4-.4-.1-2,.3-3.5,1-1.5.6-5.3,1.5-8.3,1.9-3,.4-6.6.9-8,1.2-8.7,1.5-15.2,1.9-14.5.7.4-.6,1.2-.9,1.9-.7.6.3,3.4.1,6.1-.4,2.8-.5,5.9-1.1,7-1.3,1.1-.2,2.4-.4,3-.5.6-.1.6-.4,0-1-.6-.5-5-.3-10.5.5-5.2.8-11.1,1.6-13,1.8-1.9.3-5.3.7-7.5,1.1-20.6,2.9-27.8,3.2-58.5,3-22.9-.2-32.9.1-33.9.9-1.2.8-1.3.8-.7-.2.6-1-.7-1.3-6.2-1.1-3.8.1-7.4-.1-8.1-.5-.6-.4-1.7-.4-2.3.1-2.1,1.2-3.8,1.2-3.8,0,0-.8-.3-.8-.9.1-.5.8-1.8,1.1-3.7.7-1.6-.4-4.7-1-6.8-1.3-2.2-.4-4.1-1.3-4.4-2-.2-.8.3-1,1.5-.6,1.5.5,1.5.4.3-.5-2.3-1.6-6-1.4-6,.4,0,1.3-.4,1.4-2.2.4-1.2-.6-3.3-2.3-4.7-3.6l-2.6-2.4,3.5.6c7.9,1.3,15.5,1.7,14,.6-.8-.6-2.5-1.1-3.7-1.1-6.7,0-28.2-6.4-41-12.1-2.4-1.1-4.6-1.9-4.9-1.8-.3,0-1.3-.8-2.1-1.8q-1.4-1.7-.9.2l.6,2-1.6-2c-.8-1.1-1.9-1.9-2.4-1.8-.5.2-3.5-1-6.7-2.6-5.5-2.7-20.7-6.1-21.9-4.8-.3.3.7,1.2,2.3,2.1,2.1,1.2,2.4,1.5.9,1.6-2.6,0-22.7-8.6-31.1-13.3-9.1-5.2-13.8-7.2-13.3-5.6.2.6,1.9,1.7,3.8,2.3,2.4.8,3.4,1.7,3.2,2.9-.2.9.2,1.7.8,1.7s.8-.5.5-1c-1-1.7.7-1.1,2.4.8.9.9,2.9,2.2,4.5,2.7,2,.7,3,1.7,3.1,3.2.1,1.9-.1,2-1.8,1.1-1.1-.5-3-1.1-4.3-1.3-1.4-.1-3.3-1-4.3-1.9-.9-.9-2.6-1.6-3.7-1.6-3.8,0-11.5-5.4-24.2-16.8l-3.7-3.3,4.2,2c7,3.5,6.9,2.4-.3-3.4-3.8-3-8.7-7-10.9-8.9-5.3-4.4-11.5-8.6-12.8-8.6-.5,0,2.3,3.2,6.4,7.1,6.4,6.1,6.8,6.8,3.4,4.9-2.2-1.3-5.1-3.3-6.5-4.5-1.4-1.2-3.8-3-5.5-4-3.9-2.4-15.5-13.5-15.5-14.9,0-.5,1.9.9,4.3,3.2,2.3,2.3,4.8,4.2,5.5,4.2,1.9,0,1.4-1-1.5-3.3-1.6-1.2-8.3-7.2-14.9-13.4-6.7-6.2-12.4-11-12.7-10.7-.3.3-1.8-1.3-3.3-3.6-1.6-2.4-4.2-5.7-5.8-7.4-8.1-8.7-22.6-27.3-22.6-29,0-.3-.7-1.4-1.5-2.3-3.7-4.2-12.8-16.3-17-22.8-8.3-12.7-22.6-35.7-24.1-38.9-1.1-2.4-1.3-2.6-1-.7.7,3.5-.8,1.5-4.4-5.7-1.7-3.4-2.8-6.8-2.4-7.4.4-.6.3-.8-.3-.5-1.1.7-11-18.6-13.3-25.8-.6-2.2-2.1-5.7-3.1-7.7s-1.9-4.5-1.9-5.5-.9-3.2-2-4.8c-1.1-1.7-2-3.8-2-4.9,0-1-.9-3.5-1.9-5.5s-3.8-10.8-6.1-19.6-4.9-17.6-5.7-19.7c-.8-2-1.2-4.2-.8-4.8.4-.7.3-2.2-.3-3.3-2.2-4.7-7.2-30.4-9.6-49.7-2.8-22.6-4.4-43.3-4.6-58.9-.1-8.5-.3-15.8-.6-16.3-.3-.4.1-.8.8-.9.7,0,.8-.2.3-.5-.6-.2-.9-2.3-.7-4.7.1-2.3.6-12.8,1.2-23.2.8-18,2.8-36.6,5-46.5.5-2.5,2.1-10.1,3.6-17,4.1-19.8,5.5-26,7.6-33.5,3.1-11,8.7-28.1,12.5-38.5,2-5.2,4.4-11.8,5.3-14.6,1-2.8,3-7.8,4.5-11,1.5-3.2,3.3-7.5,4.1-9.4,3.7-9,11-20.7,12.1-19.6.3.3-.5,2.3-1.8,4.3-2.5,3.8-4.9,8.8-4.9,10.1,0,.3,2.6-3.6,5.8-8.8,8.6-14.2,9.4-15.1,10.8-14.6.8.3,1.4.1,1.4-.4,0-.4,1.2-2.3,2.7-4.1,2.7-3.2,1.7-3.2-1.9-.1-2.9,2.5-2.1-.1,2.2-6.7,2.5-3.8,4.5-5.9,5.2-5.5.6.4.8.3.4-.4-.3-.6,1.7-3.9,4.6-7.4,2.9-3.5,4.4-5.7,3.5-4.9-1.5,1.2-1.7,1.1-1.7-.2,0-.9,1.2-1.8,3-2.2,1.7-.4,3-1.1,3-1.6,0-1-.5-.3,13.7-17.2,5.9-7.1,11.6-14,12.5-15.5.9-1.4,2.6-3.1,3.6-3.6,1.1-.6,5.6-4.3,10.1-8.1,4.5-3.9,8.5-7,8.9-7,.8,0,7.3-4.9,10.3-7.8,1.1-.9,2.3-1.7,2.8-1.7s1.2-.7,1.5-1.6c.4-.9,1.3-1.4,2.1-1,.9.3,1.5,0,1.5-.9,0-.8,1-2,2.3-2.6,1.2-.7,6.8-4.7,12.4-9,5.7-4.3,11.6-8.5,13.2-9.3,1.6-.9,9.1-5.5,16.7-10.4,7.7-4.8,15.4-9.4,17.2-10.2,2.2-.8,2.9-1.6,2.1-2.1-.8-.4,1-1.8,4.9-3.8,6.7-3.4,7.7-3.7,6.6-2-.4.8,0,.7,1.5-.1,1.2-.6,1.9-1.5,1.7-1.9-.4-.7,17.5-9.7,23.9-12.1,1.1-.4,3.6-1.3,5.5-1.9,1.9-.7,5.8-2.2,8.5-3.2,2.8-1.1,7-2.7,9.5-3.6,2.5-.8,5.2-2.1,6-2.7,1.3-1.1,3.8-1.8,14.5-4.2,2.4-.5,15.2-4.3,16.8-4.9.9-.4,1.7-.3,1.7.2s-1.7,1.4-3.7,2c-3.3.9-3.5,1.1-1.1,1.2,3.5.1,8.1-1.6,7.3-2.9-.3-.5,0-1,.9-1,.8,0,1.6-.5,1.8-1.1.2-.7,1.9-1.3,3.8-1.4,1.9-.1,4.2-.4,5-.7.8-.4,2.6-.9,4-1.1,1.4-.3,9.4-1.9,17.9-3.6,17.3-3.5,18.6-3.6,15.1-1.6l-2.5,1.5,2.5-.5c1.4-.3,5.4-1,9-1.5l6.5-.9-6.5.4c-20,1.1,12.3-3.3,41.5-5.7,1.7-.2,10.8-.4,20.3-.6,13.8-.3,17.2-.1,17.2,1s.2,1.1.9-.1c.7-1.1,4.3-1.2,19.7-.6,10.4.4,20.3.8,21.9,1,8.4.8,14.6,1.8,15,2.6.3.4,1.2.6,2,.3,1.5-.6,14.1,1.3,15.9,2.3.5.3,2.3.7,4,.8,10.2.7,48.5,9.7,63.6,15,4.1,1.4,9.8,3.3,12.5,4.2,7,2.2,27.5,10.1,37,14.3,2.2,1,6.2,2.7,8.8,3.8,5.6,2.5,29.3,15.5,32.1,17.7,4.1,3.2.4,2.5-5.2-.9-3.3-2-6.3-3.6-6.7-3.6s-2.8-1.4-5.3-3.1c-2.5-1.7-8.4-4.6-13.1-6.5-4.7-2-10.6-4.5-13.1-5.6s-6.3-2.7-8.4-3.4c-2.2-.8-4.4-1.8-5-2.2-2.2-1.7-17.2-7.1-24.1-8.7-3.8-1-8.3-2.3-10-3-4-1.7-11.6-3.7-12.1-3.2-.2.2,2.7,1.4,6.4,2.7s7.2,2.7,7.8,3.2c.6.4,1.8.6,2.6.3,2.2-.9,21.4,6.6,35.3,13.6,7,3.6,14.2,6.4,17.3,6.9,3.6.6,8,2.6,14,6.3,4.8,2.9,10.1,6,11.7,6.9,10.5,5.4,20.5,11.5,20.5,12.4,0,.3-.7.3-1.6,0-1.4-.6-1.5-.4-.4.9.9,1.1,1.5,1.3,2,.4.8-1.3,3.8,0,5.9,2.5.8.9,1.7,1.4,2.1,1.1.4-.3,3.1,1.2,5.9,3.3,2.7,2,8.2,5.9,12,8.7,3.9,2.7,7,5.3,7.1,5.7,0,.5-3.2-1.5-7-4.2-3.9-2.8-7.4-5-7.9-5s-1.1-.7-1.5-1.5c-.7-1.8-2.6-2-2.5-.3,0,.7,4.5,4.7,10,8.8,5.5,4.1,10.7,8.2,11.7,9.1.9.9,6.4,4.9,12.2,9,10.4,7.3,13.6,10.2,28.1,25.4,4.2,4.4,12.5,12.8,18.5,18.6,14.2,13.7,24.4,24.5,24.4,25.9,0,.9,1.4,1.4,3.2,1.1.4,0,.5.5.2,1.3-.3.8,0,1.7.7,2.2.8.5,1,.3.5-.7-.4-.8.6.2,2.3,2.1,5.1,5.8,5.5,6.4,6.9,9.5,1.1,2.6.8,2.4-2.7-1.5-2.2-2.5-4-4.2-4.1-3.8,0,.4.7,1.4,1.6,2.3,3.3,3.3,10.5,14.8,10.2,16.4-.2.9-1.5-.3-3.5-3.5-1.8-2.8-4.5-6.1-6-7.5l-2.7-2.4,1.7,2.5c.9,1.4,2.9,4.7,4.3,7.5,1.5,2.7,3.6,6.3,4.7,7.8,2.2,3.2,12.7,24.2,12.7,25.5,0,2.4,3.2,11.2,3.9,10.7.5-.2,1.2,1.2,1.6,3.2,1,5.3,4.5,11.8,10.4,19.2,4.5,5.6,5.1,6.9,5.1,11.1,0,3,.6,5.2,1.5,6,1.1.9,1.5.9,1.5.1,0-.7.5-.9,1.2-.5.8.5.8.3.2-.7-1.3-2.1-3.2-9.9-2.4-9.9.4,0,1.4,1.9,2.3,4.2.8,2.4,2.5,7,3.7,10.3,3.3,8.8,5,16,6,25,.4,4.4,1.1,10.2,1.5,13l.7,5-2.5-5c-3.2-6.4-3.3-5-.8,15.1,2.4,20.1,4.2,23.2,3.7,6.6-.2-6.8-.1-12,.3-11.7.9,1,3.1,19.5,3.7,32.5.3,6.3.3,11.2-.1,10.8Z"/>
      <path class="cls-1" d="M965.8,446.24c-.6-13-2.8-31.5-3.7-32.5-.4-.3-.5,4.9-.3,11.7.5,16.6-1.3,13.5-3.7-6.6-2.5-20.1-2.4-21.5.8-15.1l2.5,5-.7-5c-.4-2.8-1.1-8.6-1.5-13-1-9-2.7-16.2-6-25-1.2-3.3-2.9-7.9-3.7-10.3-.9-2.3-1.9-4.2-2.3-4.2-.8,0,1.1,7.8,2.4,9.9.6,1,.6,1.2-.2.7-.7-.4-1.2-.2-1.2.5,0,.8-.4.8-1.5-.1-.9-.8-1.5-3-1.5-6,0-4.2-.6-5.5-5.1-11.1-5.9-7.4-9.4-13.9-10.4-19.2-.4-2-1.1-3.4-1.6-3.2-.7.5-3.9-8.3-3.9-10.7,0-1.3-10.5-22.3-12.7-25.5-1.1-1.5-3.2-5.1-4.7-7.8-1.4-2.8-3.4-6.1-4.3-7.5l-1.7-2.5,2.7,2.4c1.5,1.4,4.2,4.7,6,7.5,2,3.2,3.3,4.4,3.5,3.5.3-1.6-6.9-13.1-10.2-16.4-.9-.9-1.6-1.9-1.6-2.3.1-.4,1.9,1.3,4.1,3.8,3.5,3.9,3.8,4.1,2.7,1.5-1.4-3.1-1.8-3.7-6.9-9.5-1.7-1.9-2.7-2.9-2.3-2.1.5,1,.3,1.2-.5.7-.7-.5-1-1.4-.7-2.2.3-.8.2-1.3-.2-1.3-1.8.3-3.2-.2-3.2-1.1,0-1.4-10.2-12.2-24.4-25.9-6-5.8-14.3-14.2-18.5-18.6-14.5-15.2-17.7-18.1-28.1-25.4-5.8-4.1-11.3-8.1-12.2-9-1-.9-6.2-5-11.7-9.1-5.5-4.1-10-8.1-10-8.8-.1-1.7,1.8-1.5,2.5.3.4.8,1,1.5,1.5,1.5s4,2.2,7.9,5c3.8,2.7,7,4.7,7,4.2-.1-.4-3.2-3-7.1-5.7-3.8-2.8-9.3-6.7-12-8.7-2.8-2.1-5.5-3.6-5.9-3.3-.4.3-1.3-.2-2.1-1.1-2.1-2.5-5.1-3.8-5.9-2.5-.5.9-1.1.7-2-.4-1.1-1.3-1-1.5.4-.9.9.3,1.6.3,1.6,0,0-.9-10-7-20.5-12.4-1.6-.9-6.9-4-11.7-6.9-6-3.7-10.4-5.7-14-6.3-3.1-.5-10.3-3.3-17.3-6.9-13.9-7-33.1-14.5-35.3-13.6-.8.3-2,.1-2.6-.3-.6-.5-4.1-1.9-7.8-3.2s-6.6-2.5-6.4-2.7c.5-.5,8.1,1.5,12.1,3.2,1.7.7,6.2,2,10,3,6.9,1.6,21.9,7,24.1,8.7.6.4,2.8,1.4,5,2.2,2.1.7,5.9,2.3,8.4,3.4s8.4,3.6,13.1,5.6c4.7,1.9,10.6,4.8,13.1,6.5,2.5,1.7,4.9,3.1,5.3,3.1s3.4,1.6,6.7,3.6c5.6,3.4,9.3,4.1,5.2.9-2.8-2.2-26.5-15.2-32.1-17.7-2.6-1.1-6.6-2.8-8.8-3.8-9.5-4.2-30-12.1-37-14.3-2.7-.9-8.4-2.8-12.5-4.2-15.1-5.3-53.4-14.3-63.6-15-1.7-.1-3.5-.5-4-.8-1.8-1-14.4-2.9-15.9-2.3-.8.3-1.7.1-2-.3-.4-.8-6.6-1.8-15-2.6-1.6-.2-11.5-.6-21.9-1-15.4-.6-19-.5-19.7.6-.7,1.2-.9,1.2-.9.1s-3.4-1.3-17.2-1c-9.5.2-18.6.4-20.3.6-29.2,2.4-61.5,6.8-41.5,5.7l6.5-.4-6.5.9c-3.6.5-7.6,1.2-9,1.5l-2.5.5,2.5-1.5c3.5-2,2.2-1.9-15.1,1.6-8.5,1.7-16.5,3.3-17.9,3.6-1.4.2-3.2.7-4,1.1-.8.3-3.1.6-5,.7-1.9.1-3.6.7-3.8,1.4-.2.6-1,1.1-1.8,1.1-.9,0-1.2.5-.9,1,.8,1.3-3.8,3-7.3,2.9-2.4-.1-2.2-.3,1.1-1.2,2-.6,3.7-1.5,3.7-2s-.8-.6-1.7-.2c-1.6.6-14.4,4.4-16.8,4.9-10.7,2.4-13.2,3.1-14.5,4.2-.8.6-3.5,1.9-6,2.7-2.5.9-6.7,2.5-9.5,3.6-2.7,1-6.6,2.5-8.5,3.2-1.9.6-4.4,1.5-5.5,1.9-6.4,2.4-24.3,11.4-23.9,12.1.2.4-.5,1.3-1.7,1.9-1.5.8-1.9.9-1.5.1,1.1-1.7.1-1.4-6.6,2-3.9,2-5.7,3.4-4.9,3.8.8.5.1,1.3-2.1,2.1-1.8.8-9.5,5.4-17.2,10.2-7.6,4.9-15.1,9.5-16.7,10.4-1.6.8-7.5,5-13.2,9.3-5.6,4.3-11.2,8.3-12.4,9-1.3.6-2.3,1.8-2.3,2.6,0,.9-.6,1.2-1.5.9-.8-.4-1.7.1-2.1,1-.3.9-1,1.6-1.5,1.6s-1.7.8-2.8,1.7c-3,2.9-9.5,7.8-10.3,7.8-.4,0-4.4,3.1-8.9,7-4.5,3.8-9,7.5-10.1,8.1-1,.5-2.7,2.2-3.6,3.6-.9,1.5-6.6,8.4-12.5,15.5-14.2,16.9-13.7,16.2-13.7,17.2,0,.5-1.3,1.2-3,1.6-1.8.4-3,1.3-3,2.2,0,1.3.2,1.4,1.7.2.9-.8-.6,1.4-3.5,4.9-2.9,3.5-4.9,6.8-4.6,7.4.4.7.2.8-.4.4-.7-.4-2.7,1.7-5.2,5.5-4.3,6.6-5.1,9.2-2.2,6.7,3.6-3.1,4.6-3.1,1.9.1-1.5,1.8-2.7,3.7-2.7,4.1,0,.5-.6.7-1.4.4-1.4-.5-2.2.4-10.8,14.6-3.2,5.2-5.8,9.1-5.8,8.8,0-1.3,2.4-6.3,4.9-10.1,1.3-2,2.1-4,1.8-4.3-1.1-1.1-8.4,10.6-12.1,19.6-.8,1.9-2.6,6.2-4.1,9.4-1.5,3.2-3.5,8.2-4.5,11-.9,2.8-3.3,9.4-5.3,14.6-3.8,10.4-9.4,27.5-12.5,38.5-2.1,7.5-3.5,13.7-7.6,33.5-1.5,6.9-3.1,14.5-3.6,17-2.2,9.9-4.2,28.5-5,46.5-.6,10.4-1.1,20.9-1.2,23.2-.2,2.4.1,4.5.7,4.7.5.3.4.5-.3.5-.7.1-1.1.5-.8.9.3.5.5,7.8.6,16.3.2,15.6,1.8,36.3,4.6,58.9,2.4,19.3,7.4,45,9.6,49.7.6,1.1.7,2.6.3,3.3-.4.6,0,2.8.8,4.8.8,2.1,3.4,10.9,5.7,19.7s5.1,17.6,6.1,19.6,1.9,4.5,1.9,5.5c0,1.1.9,3.2,2,4.9,1.1,1.6,2,3.8,2,4.8s.9,3.5,1.9,5.5,2.5,5.5,3.1,7.7c2.3,7.2,12.2,26.5,13.3,25.8.6-.3.7-.1.3.5-.4.6.7,4,2.4,7.4,3.6,7.2,5.1,9.2,4.4,5.7-.3-1.9-.1-1.7,1,.7,1.5,3.2,15.8,26.2,24.1,38.9,4.2,6.5,13.3,18.6,17,22.8.8.9,1.5,2,1.5,2.3,0,1.7,14.5,20.3,22.6,29,1.6,1.7,4.2,5,5.8,7.4,1.5,2.3,3,3.9,3.3,3.6.3-.3,6,4.5,12.7,10.7,6.6,6.2,13.3,12.2,14.9,13.4,2.9,2.3,3.4,3.3,1.5,3.3-.7,0-3.2-1.9-5.5-4.2-2.4-2.3-4.3-3.7-4.3-3.2,0,1.4,11.6,12.5,15.5,14.9,1.7,1,4.1,2.8,5.5,4,1.4,1.2,4.3,3.2,6.5,4.5,3.4,1.9,3,1.2-3.4-4.9-4.1-3.9-6.9-7.1-6.4-7.1,1.3,0,7.5,4.2,12.8,8.6,2.2,1.9,7.1,5.9,10.9,8.9,7.2,5.8,7.3,6.9.3,3.4l-4.2-2,3.7,3.3c12.7,11.4,20.4,16.8,24.2,16.8,1.1,0,2.8.7,3.7,1.6,1,.9,2.9,1.8,4.3,1.9,1.3.2,3.2.8,4.3,1.3,1.7.9,1.9.8,1.8-1.1-.1-1.5-1.1-2.5-3.1-3.2-1.6-.5-3.6-1.8-4.5-2.7-1.7-1.9-3.4-2.5-2.4-.8.3.5.1,1-.5,1s-1-.8-.8-1.7c.2-1.2-.8-2.1-3.2-2.9-1.9-.6-3.6-1.7-3.8-2.3-.5-1.6,4.2.4,13.3,5.6,8.4,4.7,28.5,13.3,31.1,13.3,1.5-.1,1.2-.4-.9-1.6-1.6-.9-2.6-1.8-2.3-2.1,1.2-1.3,16.4,2.1,21.9,4.8,3.2,1.6,6.2,2.8,6.7,2.6.5-.1,1.6.7,2.4,1.8l1.6,2-.6-2q-.5-1.9.9-.2c.8,1,1.8,1.8,2.1,1.8.3-.1,2.5.7,4.9,1.8,12.8,5.7,34.3,12.1,41,12.1,1.2,0,2.9.5,3.7,1.1,1.5,1.1-6.1.7-14-.6l-3.5-.6,2.6,2.4c1.4,1.3,3.5,3,4.7,3.6,1.8,1,2.2.9,2.2-.4,0-1.8,3.7-2,6-.4,1.2.9,1.2,1-.3.5-1.2-.4-1.7-.2-1.5.6.3.7,2.2,1.6,4.4,2,2.1.3,5.2.9,6.8,1.3,1.9.4,3.2.1,3.7-.7.6-.9.9-.9.9-.1,0,1.2,1.7,1.2,3.8,0,.6-.5,1.7-.5,2.3-.1.7.4,4.3.6,8.1.5,5.5-.2,6.8.1,6.2,1.1-.6,1-.5,1,.7.2,1-.8,11-1.1,33.9-.9,30.7.2,37.9-.1,58.5-3,2.2-.4,5.6-.8,7.5-1.1,1.9-.2,7.8-1,13-1.8,5.5-.8,9.9-1,10.5-.5.6.6.6.9,0,1-.6.1-1.9.3-3,.5-1.1.2-4.2.8-7,1.3-2.7.5-5.5.7-6.1.4-.7-.2-1.5.1-1.9.7-.7,1.2,5.8.8,14.5-.7,1.4-.3,5-.8,8-1.2,3-.4,6.8-1.3,8.3-1.9,1.5-.7,3.1-1.1,3.5-1,1,.3,16.3-3.2,19.2-4.4,1.4-.6,4.1-1.4,6-1.9,1.9-.4,7.1-1.7,11.5-2.9,4.4-1.1,9.6-2.5,11.4-3,1.9-.5,3.7-.8,3.9-.6.4.5-6.6,3-14.8,5.1-11.5,3.1-16,4.7-16,5.6,0,1.3,3.3.5,23-5.1,27.1-7.7,78-32,106-50.6,9.1-6,17.2-11.2,18-11.5.9-.4,2.2-1.4,3-2.4.8-.9,2.4-2.1,3.6-2.5,3.4-1.3,28.2-20.5,35.9-27.9,3.9-3.6,10.2-9.5,14.2-13.1,4-3.5,7-6.7,6.7-7.2-.3-.5-.2-.7.3-.6,1.8.6,25.8-25.1,38.6-41.2,4.2-5.2,8.2-10.2,8.9-11,3.4-4,16.2-21.5,21.8-30,3.5-5.2,7.1-10.7,8.2-12.2,1-1.5,1.8-3.4,1.8-4.1,0-.8,1.1-2.2,2.5-3.1,1.4-.9,2.5-2.5,2.5-3.5s.9-3,2-4.4c1.1-1.4,2-2.7,2-3,0-.2,2.3-4.3,5-9.1,2.8-4.8,5-9,5-9.3s1.1-2.1,2.5-3.9c1.4-1.8,2.5-4.1,2.5-5.2s1.1-3.6,2.5-5.6c1.4-2,2.5-4.4,2.5-5.3,0-.8.8-3.2,1.9-5.2,4.2-8.2,9.2-20.2,12.2-29.6,1.8-5.5,4.5-13.5,6.1-17.7,3.2-8.7,3.3-9.2,1.6-8.2-.8.5-.9,0-.4-1.7.8-3.2,3.8-15.4,7.6-31.4,3.1-13.1,7.4-40.5,6.5-41.3-.3-.3-.1-1,.5-1.6.5-.7,1.4-4.1,1.9-7.6,1.6-9.8,4.2-41.8,3.7-44.3-.3-1.2-.8-9-1.1-17.2-.3-8.3-.8-17-1.2-19.5-.5-4.1-.5-4.4,1-3.1,1.2,1,1.7,2.8,1.6,6.8-.1,2.9.2,5.7.6,6.1.4.4.4-4.5.1-10.8ZM290.6,192.34c3-4.7,10.8-11.8,33.6-30.8,30.2-25.2,60.6-42.2,96.1-53.8,19.2-6.3,50.3-12.6,63.1-12.8,5.3-.1,9.1-.5,8.5-.9-1.1-.7,4-1.3,13.8-1.6,2.7-.1,13.5.7,24,1.7,10.4,1.1,24.9,2.5,32,3,25.1,1.9,64.2,14.4,90.5,28.9,29.8,16.4,39.6,23.7,72.9,54.6,13.6,12.6,17.9,17.2,19.7,21.1,2.8,6,3.1,12.7.7,18.6-5.8,14.7-77.7,81.1-114.3,105.6-28.6,19.1-61.4,38.3-65.5,38.3-.9,0-7.1-2.7-13.8-6-16.5-8.1-22.1-9.5-38.2-9.5-12.6.1-13.3.2-23,3.9-5.5,2.1-13.4,5.6-17.5,7.8-6.4,3.4-8.1,3.9-11.5,3.3-4.6-.7-3.5-.1-31.5-18-26.1-16.7-40.7-26.9-56.5-39.5-6.6-5.3-16.9-13.4-23-18-23.9-18.4-56.8-51.1-62.1-61.8-5-9.9-4.1-24.4,2-34.1ZM422.7,545.94l22.3-15.7.5-29.3c.4-24.7.8-30.5,2.5-37.7,3-12.5,7.6-24.5,12.2-31.5,4.5-6.9,16.9-19.6,24.5-25.1,14.9-10.8,31.7-13.8,47-8.4,12.3,4.3,21.8,12.6,32,28,6.7,10.2,9.9,17.8,14.7,36,3.1,11.4,3.1,11.7,3.3,39.5l.2,28,21.4,14.8c11.8,8.1,22.3,15.4,23.4,16.1,1.9,1.2,1.2,1.9-9.5,8.8-9,5.9-14.2,10.3-23.7,20.1-19.8,20.4-30,35.4-43.9,64.8-8.5,18.1-11.9,27.3-24.6,65.2-9.6,28.8-10.4,30.7-11.5,28-.6-1.5-4.2-12-7.8-23.3-3.7-11.3-8.6-25.5-11-31.5-2.4-6.1-6-15.6-8-21.3-3.7-10.8-20-43.4-26.8-53.7-2.2-3.3-7.4-10.6-11.6-16.1-6.8-9.1-8.8-11-19.1-18-11.4-7.7-27.5-19.8-28.4-21.2-.2-.4,9.6-7.8,21.9-16.5ZM415.2,412.54c-12.9,2.7-20.7,3-31,1.3-18.5-3-29.9-8-36.4-15.9-10.5-12.8-12.4-29.9-5.4-47.9l2.2-5.7,3.1,1.9c1.6,1.1,22.7,14.3,46.7,29.2,24.1,15,43.8,27.6,43.8,27.9,0,1.4-16,7.8-23,9.2ZM611.2,412.84c-6.7-1.9-20-7.8-19.7-8.8.1-.4,21.1-13.8,46.7-29.8l46.5-29,1.8,4.2c1,2.4,2.5,6.8,3.3,9.8,4.5,17.3-1.7,36-15.2,45.6-5.5,3.9-16.4,7.6-27.7,9.4-9.3,1.5-27.6.8-35.7-1.4ZM233.7,860.04c-.4.4-13.5-10.7-13.5-11.4,0-.2,3.1,2.2,7,5.3,3.8,3.1,6.8,5.9,6.5,6.1ZM826.3,757.24c-6.8,0-9.2-1.1-18-8.2-9.2-7.3-12.9-9-20.1-9.1-6.7,0-13.3,2.7-17.6,7.4-1.7,1.9-10.4,15.3-19.3,29.9-17.5,28.7-22.4,34.6-32.3,39.3-15.9,7.6-33.2,4.7-47.8-7.9-13.8-11.9-31-14.3-46.9-6.6-10.2,5-13.5,9.5-49.1,66.1-18.4,29.3-34.8,54.6-36.4,56.2-3.3,3.2-7.9,4.4-13.1,3.5-3.9-.8-9.1-4.7-10-7.7-.6-1.8-.9-1.7-2.8,1.3-4.2,6.2-12.4,8.4-19.3,5.2-3.9-1.9-1.9,1.1-39.4-58.4-37.6-59.7-35.5-56.6-41.4-61.2-16.5-13.1-38.4-12.5-54.6,1.7-6.5,5.6-15.8,10.3-22.7,11.4-7.5,1.2-18.7-.4-25-3.5-10.1-4.9-14.9-10.7-32.4-39.4-8.9-14.6-17.6-28-19.3-29.9-4.3-4.7-10.4-7.2-17.5-7.2-7.5-.1-10.9,1.5-20.2,8.9-8.8,7.1-11.2,8.2-18,8.2-12.2,0-21.8-9.2-21.9-21,0-2.8,3.4-16,9-35,10.4-35.1,19.6-76.7,23.7-107l2.7-19.5.6-102.5.5-102.5,3.7-17c6.9-31.9,12.9-56,14.9-60.2,2.6-5.4,10.6-12.7,16.2-14.7,6.2-2.3,19.9-1.6,25.3,1.2,5.5,2.8,15.7,14.1,19.1,21.1,3.8,7.6,4.4,19.2,1.5,28.3-5.4,17-8.7,39.1-7.6,50.8,1.8,19.2,7.4,31.7,20.2,45.2,10.8,11.3,18.7,17.3,31,23.6,12.8,6.5,26,10.6,40.7,12.7,6.6.9,13.1,2.3,14.3,3.1,4.3,2.8,5.3,7.2,4.9,21.2-.6,19.4-3.9,24.9-20.7,34.6-15.2,8.8-23.1,18.6-26.5,32.7-1.9,8.2-1.9,15,0,22.4,3.4,13,12.6,24.6,25,31.6,15.4,8.6,37.1,35.2,50.2,61.3,11.3,22.5,22.7,49.7,30.8,73.1,4,11.5,11.1,30.9,15.8,43,10.6,27.6,9.7,24.6,15.2,52.5,4.3,21.9,5.2,25.2,13.6,47.5,4.9,13.1,9.1,24.1,9.3,24.2.2.2,4.4-10.5,9.4-23.9,8.5-22.7,9.4-25.9,14.1-49.4,4.7-23.9,5.4-26.3,14.1-49,5-13.2,12.4-33.4,16.5-44.9,8.3-23.9,19.8-51.1,30.7-73,13.5-26.8,31.7-49.1,49.8-61,15-9.8,22-18.6,25.5-32.2,1.9-7.2,1.9-14.1,0-22.2-3.4-14.1-11.3-23.9-26.5-32.7-16.7-9.7-20-15.1-20.5-34.2-.7-20.6.6-22.3,19-24.8,14.8-2,28-6.1,40.7-12.6,23.1-11.8,41.9-31.8,48.2-51.3,5.2-16.5,3.3-44.2-5-69.8-2.5-7.5-1.6-19.8,1.8-26.8,3.5-6.9,12.6-17.1,18.5-20.6,6.2-3.6,17.8-4.4,25.4-1.7,6.4,2.3,14,9,16.8,14.8,2.1,4.3,8.2,28.8,14.9,60.1l3.6,17,.6,102.5.7,102.5,2.6,19.5c4.1,30.4,13.3,71.9,23.3,105.5,4.8,15.9,8.9,31.4,9.2,34.3,1,12.9-8.6,23.2-21.7,23.2ZM957.9,467.94c-.3,1-.5.2-.5-1.7s.2-2.7.5-1.8c.2,1,.2,2.6,0,3.5Z"/>
      <path class="cls-2" d="M417.2,10.24c-3.6,1-5.8,1.9-5,1.9,2.5.2,12-2.3,12-3.1,0-.5-.1-.8-.2-.7-.2,0-3.2.9-6.8,1.9Z"/>
      <path class="cls-2" d="M360.2,15.24c0,1.2,1.7,1.2,4.5,0,1.7-.7,1.5-.9-1.2-.9-1.8-.1-3.3.3-3.3.9Z"/>
      <path class="cls-2" d="M366.8,15.84c-9.3,2.5-6.3,3.3,3.7.9,3.3-.7,6.2-1.6,6.5-1.9.9-1-5.1-.4-10.2,1Z"/>
      <path class="cls-2" d="M353.7,17.24c-.3.6.5,1,1.9,1s2.8-.5,3.1-1c.3-.6-.5-1-1.9-1s-2.8.4-3.1,1Z"/>
      <path class="cls-2" d="M345.2,19.24c-1.3.9-1.3,1,0,.9.8,0,2.4-.4,3.5-.9l2-.9h-2c-1.1,0-2.7.4-3.5.9Z"/>
      <path class="cls-2" d="M314.7,24.24c-2.1,1.6-3.1,3-2.3,3s2.3-1,3.4-2.1c1-1.2,2.8-2.5,3.9-3,1.5-.6,1.6-.8.4-.8-.9-.1-3.3,1.2-5.4,2.9Z"/>
      <path class="cls-2" d="M321.2,23.24c-.8.5-1,1-.5,1,.6,0,1.7-.5,2.5-1s1.1-1,.5-1c-.5,0-1.7.5-2.5,1Z"/>
      <path class="cls-2" d="M649.7,27.04c.6.5,2.6,1.2,4.5,1.6,4.1.7,2.1-.8-2.5-1.8-1.9-.5-2.6-.4-2,.2Z"/>
      <path class="cls-2" d="M701.2,27.34c0,.5,2.6,1.6,5.8,2.5,3.1.9,6.4,1.9,7.2,2.2,1.3.5,1.3.4,0-1.3-1.4-1.7-1.4-1.8.8-.6,3,1.6,6.4,2.3,5.7,1.1-.8-1.2-8.3-3.3-9.4-2.6-.5.3-2.9-.1-5.5-.8-2.5-.8-4.6-1-4.6-.5Z"/>
      <path class="cls-2" d="M320.7,31.24c-2.2,1-3.3,1.9-2.5,1.9s3.3-.8,5.5-1.8c2.2-1.1,3.3-1.9,2.5-1.9s-3.3.8-5.5,1.8Z"/>
      <path class="cls-2" d="M728.1,35.84c1.3,1.6,2.9,2.9,3.6,2.9s1.9.5,2.6,1.2c1.6,1.3,13.7,6.3,15.3,6.3,2.1,0-1.1-1.8-6.1-3.5-5.2-1.6-8.9-4.4-4.2-3,1.8.5,2,.4.9-.4-.8-.6-2.6-.7-3.9-.4-1.6.4-2.2.2-1.7-.5.7-1.2-2.4-3.6-6.3-4.7l-2.4-.7,2.2,2.8Z"/>
      <path class="cls-2" d="M273.8,41.74c-1.1.8-1.5,1.5-.9,1.5s1.6-.7,2.3-1.5c1.6-1.9,1.1-1.9-1.4,0Z"/>
      <path class="cls-2" d="M284.7,42.24c-.3.6.1.7.9.4,1.8-.7,2.1-1.4.7-1.4-.6,0-1.3.4-1.6,1Z"/>
      <path class="cls-2" d="M258.2,50.24c-1.3.8-1.3,1,.2,1,.9,0,2-.5,2.3-1,.8-1.3-.5-1.3-2.5,0Z"/>
      <path class="cls-2" d="M617.2,569.44c-9,5.9-14.2,10.3-23.7,20.1-19.8,20.4-30,35.4-43.9,64.8-8.5,18.1-11.9,27.3-24.6,65.2-9.6,28.8-10.4,30.7-11.5,28-.6-1.5-4.2-12-7.8-23.3-3.7-11.3-8.6-25.5-11-31.5-2.4-6.1-6-15.6-8-21.3-3.7-10.8-20-43.4-26.8-53.7-2.2-3.3-7.4-10.6-11.6-16.1-6.8-9.1-8.8-11-19.1-18-11.4-7.7-27.5-19.8-28.4-21.2-.2-.4,9.6-7.8,21.9-16.5l22.3-15.7.5-29.3c.4-24.7.8-30.5,2.5-37.7,3-12.5,7.6-24.5,12.2-31.5,4.5-6.9,16.9-19.6,24.5-25.1,14.9-10.8,31.7-13.8,47-8.4,12.3,4.3,21.8,12.6,32,28,6.7,10.2,9.9,17.8,14.7,36,3.1,11.4,3.1,11.7,3.3,39.5l.2,28,21.4,14.8c11.8,8.1,22.3,15.4,23.4,16.1,1.9,1.2,1.2,1.9-9.5,8.8Z"/>
      <path class="cls-2" d="M826.3,757.24c-6.8,0-9.2-1.1-18-8.2-9.2-7.3-12.9-9-20.1-9.1-6.7,0-13.3,2.7-17.6,7.4-1.7,1.9-10.4,15.3-19.3,29.9-17.5,28.7-22.4,34.6-32.3,39.3-15.9,7.6-33.2,4.7-47.8-7.9-13.8-11.9-31-14.3-46.9-6.6-10.2,5-13.5,9.5-49.1,66.1-18.4,29.3-34.8,54.6-36.4,56.2-3.3,3.2-7.9,4.4-13.1,3.5-3.9-.8-9.1-4.7-10-7.7-.6-1.8-.9-1.7-2.8,1.3-4.2,6.2-12.4,8.4-19.3,5.2-3.9-1.9-1.9,1.1-39.4-58.4-37.6-59.7-35.5-56.6-41.4-61.2-16.5-13.1-38.4-12.5-54.6,1.7-6.5,5.6-15.8,10.3-22.7,11.4-7.5,1.2-18.7-.4-25-3.5-10.1-4.9-14.9-10.7-32.4-39.4-8.9-14.6-17.6-28-19.3-29.9-4.3-4.7-10.4-7.2-17.5-7.2-7.5-.1-10.9,1.5-20.2,8.9-8.8,7.1-11.2,8.2-18,8.2-12.2,0-21.8-9.2-21.9-21,0-2.8,3.4-16,9-35,10.4-35.1,19.6-76.7,23.7-107l2.7-19.5.6-102.5.5-102.5,3.7-17c6.9-31.9,12.9-56,14.9-60.2,2.6-5.4,10.6-12.7,16.2-14.7,6.2-2.3,19.9-1.6,25.3,1.2,5.5,2.8,15.7,14.1,19.1,21.1,3.8,7.6,4.4,19.2,1.5,28.3-5.4,17-8.7,39.1-7.6,50.8,1.8,19.2,7.4,31.7,20.2,45.2,10.8,11.3,18.7,17.3,31,23.6,12.8,6.5,26,10.6,40.7,12.7,6.6.9,13.1,2.3,14.3,3.1,4.3,2.8,5.3,7.2,4.9,21.2-.6,19.4-3.9,24.9-20.7,34.6-15.2,8.8-23.1,18.6-26.5,32.7-1.9,8.2-1.9,15,0,22.4,3.4,13,12.6,24.6,25,31.6,15.4,8.6,37.1,35.2,50.2,61.3,11.3,22.5,22.7,49.7,30.8,73.1,4,11.5,11.1,30.9,15.8,43,10.6,27.6,9.7,24.6,15.2,52.5,4.3,21.9,5.2,25.2,13.6,47.5,4.9,13.1,9.1,24.1,9.3,24.2.2.2,4.4-10.5,9.4-23.9,8.5-22.7,9.4-25.9,14.1-49.4,4.7-23.9,5.4-26.3,14.1-49,5-13.2,12.4-33.4,16.5-44.9,8.3-23.9,19.8-51.1,30.7-73,13.5-26.8,31.7-49.1,49.8-61,15-9.8,22-18.6,25.5-32.2,1.9-7.2,1.9-14.1,0-22.2-3.4-14.1-11.3-23.9-26.5-32.7-16.7-9.7-20-15.1-20.5-34.2-.7-20.6.6-22.3,19-24.8,14.8-2,28-6.1,40.7-12.6,23.1-11.8,41.9-31.8,48.2-51.3,5.2-16.5,3.3-44.2-5-69.8-2.5-7.5-1.6-19.8,1.8-26.8,3.5-6.9,12.6-17.1,18.5-20.6,6.2-3.6,17.8-4.4,25.4-1.7,6.4,2.3,14,9,16.8,14.8,2.1,4.3,8.2,28.8,14.9,60.1l3.6,17,.6,102.5.7,102.5,2.6,19.5c4.1,30.4,13.3,71.9,23.3,105.5,4.8,15.9,8.9,31.4,9.2,34.3,1,12.9-8.6,23.2-21.7,23.2Z"/>
      <path class="cls-2" d="M438.2,403.34c0,1.4-16,7.8-23,9.2-12.9,2.7-20.7,3-31,1.3-18.5-3-29.9-8-36.4-15.9-10.5-12.8-12.4-29.9-5.4-47.9l2.2-5.7,3.1,1.9c1.6,1.1,22.7,14.3,46.7,29.2,24.1,15,43.8,27.6,43.8,27.9Z"/>
      <path class="cls-2" d="M674.6,404.84c-5.5,3.9-16.4,7.6-27.7,9.4-9.3,1.5-27.6.8-35.7-1.4-6.7-1.9-20-7.8-19.7-8.8.1-.4,21.1-13.8,46.7-29.8l46.5-29,1.8,4.2c1,2.4,2.5,6.8,3.3,9.8,4.5,17.3-1.7,36-15.2,45.6Z"/>
      <path class="cls-2" d="M745.5,220.34c-5.8,14.7-77.7,81.1-114.3,105.6-28.6,19.1-61.4,38.3-65.5,38.3-.9,0-7.1-2.7-13.8-6-16.5-8.1-22.1-9.5-38.2-9.5-12.6.1-13.3.2-23,3.9-5.5,2.1-13.4,5.6-17.5,7.8-6.4,3.4-8.1,3.9-11.5,3.3-4.6-.7-3.5-.1-31.5-18-26.1-16.7-40.7-26.9-56.5-39.5-6.6-5.3-16.9-13.4-23-18-23.9-18.4-56.8-51.1-62.1-61.8-5-9.9-4.1-24.4,2-34.1,3-4.7,10.8-11.8,33.6-30.8,30.2-25.2,60.6-42.2,96.1-53.8,19.2-6.3,50.3-12.6,63.1-12.8,5.3-.1,9.1-.5,8.5-.9-1.1-.7,4-1.3,13.8-1.6,2.7-.1,13.5.7,24,1.7,10.4,1.1,24.9,2.5,32,3,25.1,1.9,64.2,14.4,90.5,28.9,29.8,16.4,39.6,23.7,72.9,54.6,13.6,12.6,17.9,17.2,19.7,21.1,2.8,6,3.1,12.7.7,18.6Z"/>
      <path class="cls-2" d="M957.9,467.94c-.3,1-.5.2-.5-1.7s.2-2.7.5-1.8c.2,1,.2,2.6,0,3.5Z"/>
      <path class="cls-2" d="M233.7,860.04c-.4.4-13.5-10.7-13.5-11.4,0-.2,3.1,2.2,7,5.3,3.8,3.1,6.8,5.9,6.5,6.1Z"/>
      <path class="cls-2" d="M765.2,135.44c0,1.3,7.9,5.2,8.8,4.4.4-.4-7.2-5.6-8.3-5.6-.3,0-.5.6-.5,1.2Z"/>
      <path class="cls-2" d="M93,195.94c-3.2,3.8-10.1,14.3-9.6,14.8.2.2,3-3.4,6.1-8,5.5-8.4,6.5-10.2,3.5-6.8Z"/>
      <path class="cls-2" d="M876.2,230.14c0,.6.4,1.3,1,1.6s.7-.1.4-.9c-.7-1.8-1.4-2.1-1.4-.7Z"/>
      <path class="cls-2" d="M880.7,235.24c1,1.1,2,2,2.3,2s-.3-.9-1.3-2-2-2-2.3-2,.3.9,1.3,2Z"/>
      <path class="cls-2" d="M975.2,258.74c0,.8.4,1.5,1,1.5.5,0,.7-.7.4-1.5-.4-.8-.8-1.5-1-1.5s-.4.7-.4,1.5Z"/>
      <path class="cls-2" d="M977.2,261.74c0,.5.5,1.7,1,2.5s1,1,1,.5c0-.6-.5-1.7-1-2.5s-1-1.1-1-.5Z"/>
      <path class="cls-2" d="M128.7,271.84c-.9,1.5-1.2,2.3-.6,2,1.1-.7,3.5-4.6,2.8-4.6-.3,0-1.2,1.2-2.2,2.6Z"/>
      <path class="cls-2" d="M910.2,273.54c0,.7.7,2.2,1.6,3.3,1.4,1.7,1.5,1.7,1,.1-.3-1-.6-2.5-.6-3.3s-.4-1.4-1-1.4c-.5,0-1,.6-1,1.3Z"/>
      <path class="cls-2" d="M917.2,283.24c.6,1.1,1.3,2,1.6,2,.2,0,0-.9-.6-2s-1.3-2-1.6-2c-.2,0,0,.9.6,2Z"/>
      <path class="cls-2" d="M39.9,288.84c-.4.4-.7,1.4-.7,2.3,0,1.1.3,1.2,1.1.4.6-.6,1-1.6.7-2.3-.2-.6-.7-.8-1.1-.4Z"/>
      <path class="cls-2" d="M926.7,289.74c.4,1.1.8,3.2,1,4.6.1,1.5,1.8,5.1,3.8,8.1s4.1,6.7,4.8,8.1c1.7,3.8,4.1,4.4,3.3.9-.4-1.5-1-3.2-1.5-3.7-.4-.6-2.6-4.6-4.9-9-4-7.7-8.3-13.7-6.5-9Z"/>
      <path class="cls-2" d="M35.7,293.24c-.4.6-1.1,2.5-1.6,4.2l-.8,3.1,2.4-2.3c1.4-1.3,2.5-3.2,2.5-4.2,0-2-1.5-2.4-2.5-.8Z"/>
      <path class="cls-2" d="M927.2,305.24c.6,1.1,1.3,2,1.6,2,.2,0,0-.9-.6-2s-1.3-2-1.6-2c-.2,0,0,.9.6,2Z"/>
      <path class="cls-2" d="M30.7,305.44c-2.1,7-2.5,8.7-1.9,10.1.3,1-.1,3.6-1,5.8-.9,2.3-1.5,4.4-1.2,4.7s.8-.4,1.2-1.4c.3-1,1.4-4.1,2.5-6.8,2.1-5.5,2.4-7,.9-6.1-.5.3-1,.1-1-.4,0-.6.4-1.1.8-1.1.5,0,.8-1.4.8-3,0-3.2-.4-3.8-1.1-1.8Z"/>
      <path class="cls-2" d="M998.2,310.84c0,.6.7,1.9,1.6,3q1.4,1.8.3-.6c-1.4-3.1-1.9-3.6-1.9-2.4Z"/>
      <path class="cls-2" d="M934.2,315.84c.1.5.7,2,1.5,3.4s1.4,2.8,1.5,3.2c0,1.3-2.8.9-3.3-.5-.4-.8-.6-.7-.6.3-.1,2.1,4.7,15.1,6.4,17.4,2.1,2.8,3.1,1.1,1.7-2.7-.8-2.1-.9-3.3-.2-3.5,1.8-.6,1.1-6.1-1.4-11-2.3-4.6-5.6-8.5-5.6-6.6ZM938.6,328.84c.3.8.2,1.2-.4.9s-1-1-1-1.6c0-1.4.7-1.1,1.4.7Z"/>
      <path class="cls-2" d="M926.3,316.94c0,.4.4,1.7.9,2.8.8,1.9.9,1.9.9-.2.1-1.2-.3-2.5-.9-2.8-.5-.3-1-.3-.9.2Z"/>
      <path class="cls-2" d="M994.3,321.94c1.1,3.4,1.9,4.2,1.9,2,0-.7-.7-2.2-1.5-3.3-1.3-1.7-1.4-1.6-.4,1.3Z"/>
      <path class="cls-2" d="M946.2,344.04c0,.9,2.7,7.5,5.9,14.2,1,2.2,1,1.8.5-2.5-.3-2.7-1.2-6.1-1.9-7.6-1.5-2.9-4.5-5.7-4.5-4.1Z"/>
      <path class="cls-2" d="M1007.4,349.24c0,1.4.2,1.9.5,1.2.2-.6.2-1.8,0-2.5-.3-.6-.5-.1-.5,1.3Z"/>
      <path class="cls-2" d="M1008.3,354.24c.1,2.7,3.7,11.7,3.8,9.2.1-1.2-.3-3-.8-4-.5-.9-1.4-2.8-1.9-4.2-.6-1.4-1.1-1.8-1.1-1Z"/>
      <path class="cls-2" d="M27.4,374.24c0,1.4.2,1.9.5,1.2.2-.6.2-1.8,0-2.5-.3-.6-.5-.1-.5,1.3Z"/>
      <path class="cls-2" d="M1014.7,445.04c.8,1.5-1.5,4-3.3,3.6-.7-.1-.8,0-.2.3,1.6.7.1,2.3-2.2,2.3-1.4,0-1.8-.5-1.5-1.5.9-2.1-.7-2.7-2.9-1-1.8,1.4-1.8,1.5,0,.9,1.5-.6,1.7-.3,1.1,1.7-.5,1.8-.4,2.1.4.9.6-.8,1.1-1,1.1-.5,0,.6-.5,1.6-1.2,2.3-.9.9-.8,1.2.4,1.2.9,0,1.9-.8,2.2-1.8.2-.9.3-.2.1,1.6-.2,1.9-.7,3.7-1.1,4-.4.4-.4-.1,0-1.2.5-1.4.2-1.7-.9-1.2-1.1.4-1.7-.2-2.1-2.3-.3-1.5-1.2-2.8-2-2.8-1,0-1.1.4-.2,1.4,1.5,1.8.4,2.7-1.9,1.5-1.3-.7-2.4-.6-3.8.4-1,.8-1.5,1.4-1,1.4.4,0,0,1-1.1,2.2-1.5,1.9-1.6,2-.1.9,2.7-2.1,2.2.9-.6,3.4-1.3,1.1-1.7,1.6-1,1.1.8-.5,1.3-.4,1.3.4s.3,1,.8.6c.4-.4.7-1.3.7-1.9,0-.5.7-1.2,1.5-1.4.9-.3,1.1-.1.5.4-1.4,1.2-1.9,6.3-.5,6.3.7,0,.6.5-.2,1.4-.7.8-1.7,1.2-2.1.9-.8-.5-.3,3,.9,6,.4,1,.7,2.8.8,4,.1,1.4.7,2.1,1.6,1.9,1.2-.3,1.2-.1.3.9-.9.9-.9,1.7-.2,3.2.8,1.4.8,1.8,0,1.3-1.7-1.1-1.3.5.6,2.6,1.1,1.2,1.2,1.8.3,1.8-.7,0-1,.7-.6,1.6.3.8.2,1.2-.4.9s-1-.3-1.1.2c0,.4-.2,1.6-.4,2.6-.2.9.1,1.5.5,1.2.5-.3,1.2,0,1.5.6.4.5,1.3.8,2,.5.9-.3,1.1.2.8,1.5-.5,1.6-.8,1.7-2.2.7-1.4-1.2-1.5-1.1-.2.5,1,1.3,1.1,2.1.3,2.9-.6.6-.8,1.7-.5,2.5.5,1.1.9,1.1,2.4-.3,1.4-1.2,1.6-2,.8-2.5s-.8-1.2,0-2.5c.9-1.7,1-1.7,1.1-.2,0,1,.5,1.7,1.1,1.5,2.1-.4,2,2-.1,2.6-1.4.3-2,1.3-2,3.1,0,1.4.5,2.6,1.1,2.6s.9-.9.6-1.9c-.3-1.2.1-2.2,1-2.5.9-.4,1.2-.2.7.7-.6.9-.4.9.8-.1.9-.7,1.4-2.1,1.1-3.2-.3-1.3,0-2,.8-2,1.1,0,1.1-.2-.1-1-.9-.6-1-1-.3-1,1.6,0,2.6,1.7,1.3,2.5-.7.4-.7,1.2,0,2.5,1.4,2.6,1.3,2.7-1.7,3.5-1.6.4-2.2,1-1.5,1.2.6.3.9,1,.6,1.5-.4.7-.2.8.5.4.6-.4.9-1.1.6-1.6-.3-.4.4-1,1.5-1.3,2.3-.6,2.4-.3.9,2.5-.9,1.6-.8,1.9.3,1.6.7-.3,1.4-1,1.4-1.6.1-.7.2-1.7.3-2.4,0-.7,1.1.2,2.4,1.8,4.3,5.8,8.6,9.3,7.4,6-.4-1,.2-1.6,1.5-1.8,1.2-.2,2.3-.9,2.6-1.6.2-.8-.3-1-1.5-.6q-1.7.5,0-.9c.9-.8,1.7-1.9,1.7-2.6,0-1.3-3.5,2-4.3,4-.4,1-.6.9-.6-.3-.1-.9.3-1.9.8-2.3.5-.3.8-2.1.6-4s.1-3.5.6-3.5.9.6,1,1.2c0,.7.4.4.8-.7.9-2.2.5-3.5-1-3.5-.6,0-.7.4-.4,1,.3.5.2,1-.4,1-1.9,0-2.3-4.1-.6-6.1,1.5-1.5,1.5-2.1.5-3.4-1-1.2-1-1.5,0-1.5.7,0,1-.7.6-1.6-.8-2,1.2-4.7,2.7-3.7.6.3.7.1.3-.5-.4-.7-1.6-1.2-2.7-1.2s-1.8-.4-1.4-1c.3-.5,1.3-.6,2.3-.3,1.5.6,1.5.5.3-1-1.7-2.1-2.4-8.4-1-9.2.5-.4.9-.1.9.6,0,2.2,1.1.1,1.6-3,.6-3.4.3-3.6-2.9-2q-2,.9-.4-.4c1.9-1.6,2.3-3.7.6-3.7-.6,0-.9-.6-.6-1.4.3-.7,0-1.9-.6-2.5s-.7-1.1-.2-1.1c.4,0,0-.9-1-2-1.6-1.8-1.6-2-.1-2.6,2.6-1,1.8-2.2-1.1-1.6-2.5.5-2.7.4-1.4-1.1.9-1.1,1-1.7.2-1.7-.6,0-1.1-.6-1.1-1.3,0-.6-1-2.3-2.1-3.7s-1.8-1.9-1.4-1.2ZM1015.7,448.24c-.3.5-.1,1,.6,1,1.6,0,.3,1.3-1.6,1.6-1.2.2-1.2-.2-.5-1.7.6-1,1.3-1.9,1.6-1.9s.2.4-.1,1ZM1013.5,452.94c-.7.2-1.9.2-2.5,0-.7-.3-.2-.5,1.2-.5s1.9.2,1.3.5ZM1000.6,456.34c-.7,1.2,1,1.1,2.2-.1.7-.7.9-.1.6,2-.2,1.6-.8,3-1.3,3s-.6-.7-.3-1.5c.4-1,.2-1.4-.7-1-.8.3-2,.1-2.8-.4-1.8-1.2-.6-4.2,1.4-3.5.8.3,1.2,1,.9,1.5ZM1014.2,456.74c0,.2-.9.3-1.9.2-1.1,0-1.8-.5-1.5-.9.4-.6,3.4,0,3.4.7ZM1025.2,471.24c0,.5-.5,1-1.1,1-.5,0-.7-.5-.4-1,.3-.6.8-1,1.1-1,.2,0,.4.4.4,1ZM1007.9,486.74c0,.8-.4,1.2-.9.9s-.6-1-.3-1.5c.9-1.3,1.2-1.1,1.2.6ZM1007.4,489.64c.7-.4.8-.2.4.5-.9,1.3-2.6.5-2.5-1.2,0-.9.2-.8.6.1.2.6,1,.9,1.5.6ZM1020.6,489.74c-.4.8-.8,1.5-1,1.5s-.4-.7-.4-1.5.4-1.5,1-1.5c.5,0,.7.7.4,1.5ZM1002.2,492.74c0,.8-.4,1.5-1,1.5-.5,0-.7-.7-.4-1.5.4-.8.8-1.5,1-1.5s.4.7.4,1.5ZM1006.7,493.14c.3.5.1,1.2-.5,1.6-.5.3-1-.1-1-.9,0-1.8.6-2.1,1.5-.7ZM1008.8,494.74c-.7,1.9.3,4.7,1.5,3.9.5-.3.9-.3.9,0,0,1.6-2.1,1.4-2.9-.3-1-1.8-.6-5.1.6-5.1.3,0,.3.7-.1,1.5ZM1022.7,495.04c-.3.3-1.1,0-1.8-.7-.9-1-.8-1.1.6-.5,1,.3,1.5.9,1.2,1.2ZM1020.2,495.64c0,.2-.8,1-1.7,1.7-1.6,1.3-1.7,1.2-.4-.4s2.1-2.1,2.1-1.3ZM1000.1,497.14c.8.5.9,1.1.3,1.5-.5.3-1.5-.1-2.2-.9-1.4-1.6-.3-2,1.9-.6ZM1005.8,498.74c.1.8-.2,1.5-.6,1.5-.5,0-.8-.9-.7-2,.1-2.1,1-1.8,1.3.5ZM1014.6,506.54c-.5,1.4-.8,1.4-2,.2-1.6-1.6-1.9-2.9-.4-2,.6.3,1,.1,1-.6,0-.9.3-1,1-.3.6.6.8,1.8.4,2.7ZM1019.3,514.54c-1.3,1.3-2.6.3-1.6-1.2.3-.6,1.1-.8,1.7-.5.6.4.6,1-.1,1.7Z"/>
      <path class="cls-2" d="M1017.7,445.24c-.3.5-.1,1,.4,1,.6,0,1.1-.5,1.1-1,0-.6-.2-1-.4-1-.3,0-.8.4-1.1,1Z"/>
      <path class="cls-2" d="M1019.5,448.74c0,.8.4,1.2.9.9s.6-1,.3-1.5c-.9-1.3-1.2-1.1-1.2.6Z"/>
      <path class="cls-2" d="M1021.7,457.24c.3.5.8,1,1.1,1,.2,0,.4-.5.4-1,0-.6-.5-1-1.1-1-.5,0-.7.4-.4,1Z"/>
      <path class="cls-2" d="M991.4,476.44c1.2,1.1,1.4,1.8.6,3.2s-.7,1.7.1,1.2c.6-.4,1.6-1.7,2.2-2.9.7-1.2.8-1.9.4-1.5s-1.7.3-2.9-.3c-1.8-.9-1.9-.9-.4.3Z"/>
      <path class="cls-2" d="M1024.9,478.34c.3,1.1.6,1.8.7,1.7.1-.2.7-1,1.3-1.8,1-1.3.8-1.6-.6-1.7s-1.7.4-1.4,1.8Z"/>
      <path class="cls-2" d="M994.4,480.44c-.7.9-.6,1.7.3,2.5,1,.9,1.3.7,1.1-1.3q-.1-2.8-1.4-1.2Z"/>
      <path class="cls-2" d="M988.4,484.24c0,1.4.2,1.9.5,1.2.2-.6.2-1.8,0-2.5-.3-.6-.5-.1-.5,1.3Z"/>
      <path class="cls-2" d="M993.2,484.14c0,1,1.9,2.5,2.5,2,.1-.2-.3-1-1.1-1.7s-1.4-.8-1.4-.3Z"/>
      <path class="cls-2" d="M993.6,489.44c-.4.7-.4,1,.1.6.4-.4,1.4,0,2.1,1,.7.9,1.4,1.2,1.4.6s-.6-1.7-1.4-2.3c-1.1-.9-1.6-.9-2.2.1Z"/>
      <path class="cls-2" d="M1024.8,490.74c.4.8.8,1.5,1,1.5s.4-.7.4-1.5-.4-1.5-1-1.5c-.5,0-.7.7-.4,1.5Z"/>
      <path class="cls-2" d="M1034.9,493.94c-1,5.5-.8,10.3.2,10.3,1.9,0,2.9-10.2,1.2-12.8-.5-.9-1-.1-1.4,2.5Z"/>
      <path class="cls-2" d="M5.9,493.94c-1.5,1.5-.5,2.2,2.8,2.1,1.9-.1,3.2-.5,2.9-1-.3-.4-1.7-.5-3.1-.2-1.8.5-2.4.3-1.9-.5.8-1.2.3-1.5-.7-.4Z"/>
      <path class="cls-2" d="M16.4,494.84c-1.1,1.2-.9,1.4,1.2,1.4,1.4,0,2.8-.5,3.2-1.2.5-.7.2-.9-.9-.5-.9.3-1.7.2-1.9-.3-.2-.4-.9-.2-1.6.6Z"/>
      <path class="cls-2" d="M24.2,495.04c0,.5.7.9,1.5.9s1.2-.4.9-.9c-.3-.4-.9-.8-1.5-.8-.5,0-.9.4-.9.8Z"/>
      <path class="cls-2" d="M7.2,498.14c0,.6.5,1.3,1.2,1.7.7.5.8.3.3-.6-.6-1,0-1.2,2.3-.8,1.7.2,2.9.1,2.6-.4-.7-1.1-6.4-1-6.4.1Z"/>
      <path class="cls-2" d="M18,497.94c.6.2,1.8.2,2.5,0,.6-.3.1-.5-1.3-.5s-1.9.2-1.2.5Z"/>
      <path class="cls-2" d="M32.5,498.74c0,.8.4,1.2.9.9s.6-1,.3-1.5c-.9-1.3-1.2-1.1-1.2.6Z"/>
      <path class="cls-2" d="M1022.8,498.94c-.8,2-.5,2.2,1.5,1.4,1.4-.5,1.5-.8.4-1.8-1-1-1.5-.9-1.9.4Z"/>
      <path class="cls-2" d="M18,500.14c1.1.7,1.1.9-.2,1.4-.9.4-1.6,1.1-1.6,1.7,0,.5.9.2,2-.7,2.5-2.1,2.6-3.3.3-3.3-1.4,0-1.5.2-.5.9Z"/>
      <path class="cls-2" d="M13.4,504.04c.2,2.3.7,4.2,1.1,4.2s.5-1.7.1-3.8c-.9-5.2-1.5-5.4-1.2-.4Z"/>
      <path class="cls-2" d="M30.7,503.04c-1,.7-2,5.2-1.2,5.2.3,0,1-1.4,1.6-3q1.1-3.3-.4-2.2Z"/>
      <path class="cls-2" d="M21.7,504.14c-.3.5-.2,1.2.3,1.5s.9-.1.9-.9c0-1.7-.3-1.9-1.2-.6Z"/>
      <path class="cls-2" d="M24.6,505.44c-.4,1.3-.2,2.4.4,2.6s.8,1.1.5,2c-.4,1.4-.3,1.5.5.2.7-.9.7-1.8.1-2.6-.5-.6-.7-1.9-.3-2.8.3-.9.4-1.6.1-1.6s-.9,1-1.3,2.2Z"/>
      <path class="cls-2" d="M27.4,505.24c0,1.4.2,1.9.5,1.2.2-.6.2-1.8,0-2.5-.3-.6-.5-.1-.5,1.3Z"/>
      <path class="cls-2" d="M17.2,506.84c0,.8.6,1.1,1.5.8.8-.4,1.5-.9,1.5-1.3s-.7-.8-1.5-.8-1.5.6-1.5,1.3Z"/>
      <path class="cls-2" d="M11.3,517.04c.1,5.1.6,9.5,1.1,9.8.9.6.1-17.6-.9-18.6-.2-.2-.3,3.7-.2,8.8Z"/>
      <path class="cls-2" d="M20,508.94c.7.3,1.6.2,1.9-.1.4-.3-.2-.6-1.3-.5-1.1,0-1.4.3-.6.6Z"/>
      <path class="cls-2" d="M16.2,511.14c0,.5.5,1.3,1,1.6.6.4.8,1.1.5,1.6-.4.5-.4.9-.1.9.2,0,1.3.3,2.3.6,1.5.5,1.6.4.3-.5s-1.2-1.2.8-1.7c1.2-.4,2.2-1,2.2-1.6,0-.5-.8-.4-1.9.2-1.5.7-2.3.6-3.5-.6-.9-.8-1.6-1.1-1.6-.5Z"/>
      <path class="cls-2" d="M1012.5,514.84c0,3.3.2,3.5,1.4,1.8.7-1,1.3-2.1,1.3-2.5,0-.3-.6-1.2-1.3-1.8-1.1-.8-1.4-.4-1.4,2.5Z"/>
      <path class="cls-2" d="M24.6,513.54c-.2.7-.3,2.4-.1,3.7.3,1.4-.1,3.1-.7,3.9-.8,1.1-.8,1.3,0,.8.7-.4,1.4,0,1.8.8.3.8.1,1.5-.4,1.5-.6,0-.6.9-.1,2.3.5,1.3.5,3,.1,3.8-.6,1.1-.3,1.5,1.1,1.6,1.2.1,1.7-.2,1.2-1-1.2-1.9-1-6.6.2-7.1.7-.2,1.8,0,2.6.5,1.1.7,1,.9-.4.9-1.2,0-1.6.4-1,1.2.4.7.8,2.1.8,3.1,0,1.9,2.1,3.7,4.4,3.7,1.1,0,1.1-.3.1-1.5-.6-.8-.9-2-.5-2.7s0-.5-.8.4c-.8,1-1.7,1.8-2,1.8-.6,0-.4-2.1.5-3.5.3-.6.4-2.8.2-5-.3-3-.1-3.6.7-2.5.9,1.2,1,1.2.5-.3-.3-1-.6-2.2-.6-2.5,0-.4-.9.8-2,2.5-1.1,1.8-2.5,3.3-3,3.3-.6,0-.9-.4-.6-.9.4-.5,0-1.2-.6-1.4-.8-.3-.6-.6.4-.6,2.4-.1,5.1-5.1,2.8-5.1-.5,0-.9.3-.9.7.4,2.2-.3,3.3-1.8,3.3-1.4,0-1.5-.2-.4-.9,1-.6,1-1,.1-1.6s-.9-1,.1-1.6c1.1-.7,1.1-.9.1-.9-.7,0-1-.5-.7-1,.3-.6.4-1,0-1-.3,0-.8.6-1.1,1.3Z"/>
      <path class="cls-2" d="M1003.2,513.84c0,.5.9,1.5,2,2.2,1.7,1,2,1,2-.5,0-.9-.3-1.3-.7-1-.3.4-1.2.2-2-.4-.7-.6-1.3-.7-1.3-.3Z"/>
      <path class="cls-2" d="M1009.8,516.04c-1,1.7.6,5.1,2.1,4.5,1.3-.5,1.3-.7,0-1.5-.9-.5-1.4-1.5-1.1-2.3.6-1.6-.1-2.1-1-.7Z"/>
      <path class="cls-2" d="M17.5,517.74c0,.8.4,1.2.9.9s.6-1,.3-1.5c-.9-1.3-1.2-1.1-1.2.6Z"/>
      <path class="cls-2" d="M34.9,516.94c-1,.9-.9,3.3.1,3.3.4,0,.8-.9.9-2,.2-2.1,0-2.4-1-1.3Z"/>
      <path class="cls-2" d="M1015.2,517.24c0,.5.5,1,1.1,1,.5,0,.7-.5.4-1-.3-.6-.8-1-1.1-1-.2,0-.4.4-.4,1Z"/>
      <path class="cls-2" d="M1018.5,518.94c.3,1.3-.1,2.4-1,2.7-2,.8-2.1.8-2.6-.9-.3-1.1-.4-1-.3.2.1,1,.9,1.7,1.9,1.7,1.3-.1,1.6.4,1.2,2.5-.3,2,0,2.8,1,2.8s1.1-.5.4-1.9c-.9-1.7-.5-2.2,1.4-1.9.4,0,.7-.5.7-1.2,0-.8.4-.7,1.1.3.9,1.3,1,1.3.6,0-.2-.8-1.2-1.4-2.2-1.2s-1.4-.1-1-.7c.3-.6.1-1.9-.5-2.8-1-1.6-1.1-1.6-.7.4Z"/>
      <path class="cls-2" d="M1005.7,519.24c.3.5,1,1,1.6,1,.5,0,.9-.5.9-1,0-.6-.7-1-1.6-1-.8,0-1.2.4-.9,1Z"/>
      <path class="cls-2" d="M18.9,519.94c-.4.3-.7,1.6-.6,2.7,0,1.9.1,1.9,1-.3,1-2.4.8-3.6-.4-2.4Z"/>
      <path class="cls-2" d="M1005.8,522.04c-.3.5.1.9.9.9s1.2-.4.9-.9c-.3-.4-.7-.8-.9-.8s-.6.4-.9.8Z"/>
      <path class="cls-2" d="M17.9,525.94c-1,.9-.9,2.3.1,2.3.5,0,.9-.7.9-1.5,0-1.7-.1-1.8-1-.8Z"/>
      <path class="cls-2" d="M1014.6,529.44c-.4.6-.3.8.4.4.6-.3,1.5.2,2.1,1.1.9,1.6,1,1.6,1.1.2,0-2-2.7-3.3-3.6-1.7Z"/>
      <path class="cls-2" d="M8.3,531.84c0,1.1.3,1.4.6.6.3-.7.2-1.6-.1-1.9-.3-.4-.6.2-.5,1.3Z"/>
      <path class="cls-2" d="M11.7,531.24c.3.5.8,1,1.1,1,.2,0,.4-.5.4-1,0-.6-.5-1-1.1-1-.5,0-.7.4-.4,1Z"/>
      <path class="cls-2" d="M20.5,535.64q-.1,2.9.6.6c.5-1.4,1.4-2.4,2.2-2.2s1,0,.6-.4c-1.8-1.9-3.3-1-3.4,2Z"/>
      <path class="cls-2" d="M25.5,537.14l-.2,3.6,1.4-3.2c.7-1.7,2.2-3.3,3.2-3.6,1-.2.4-.4-1.2-.4-2.7,0-3,.3-3.2,3.6Z"/>
      <path class="cls-2" d="M16.9,536.34c.7.7,1.5,1,1.8.7s-.2-.9-1.2-1.2c-1.4-.6-1.5-.5-.6.5Z"/>
      <path class="cls-2" d="M1014,535.94c.7.3,1.6.2,1.9-.1.4-.3-.2-.6-1.3-.5-1.1,0-1.4.3-.6.6Z"/>
      <path class="cls-2" d="M8.4,539.24c0,1.4.2,1.9.5,1.2.2-.6.2-1.8,0-2.5-.3-.6-.5-.1-.5,1.3Z"/>
      <path class="cls-2" d="M12.4,541.74c0,1.6.2,2.2.5,1.2.2-.9.2-2.3,0-3-.3-.6-.5.1-.5,1.8Z"/>
      <path class="cls-2" d="M18.7,540.24c-.3.6.1.7.9.4,1.8-.7,2.1-1.4.7-1.4-.6,0-1.3.4-1.6,1Z"/>
      <path class="cls-2" d="M25.9,543.24c-.3,1.2,0,2,.8,2s1.1-.8.8-2c-.3-1.1-.7-2-.8-2s-.5.9-.8,2Z"/>
      <path class="cls-2" d="M1026.8,549.54c-.5,2.1-.6,4.1-.2,4.4,1.2,1.2,1.7-.5,1.4-4.3l-.4-3.9-.8,3.8Z"/>
      <path class="cls-2" d="M15.9,551.34c.4,1.3.8,1.8,1.1,1,.2-.7-.1-1.8-.6-2.3-.8-.8-.9-.4-.5,1.3Z"/>
      <path class="cls-2" d="M19.2,550.64c0,.2.7.7,1.6,1,.8.3,1.2.2.9-.4-.6-1-2.5-1.4-2.5-.6Z"/>
      <path class="cls-2" d="M26.7,558.24c.3.5.8,1,1.1,1,.2,0,.4-.5.4-1,0-.6-.5-1-1.1-1-.5,0-.7.4-.4,1Z"/>
      <path class="cls-2" d="M990.9,684.64c-.9,2.7-1.5,5.1-1.4,5.3.7.7,3.9-7.6,3.5-8.8-.3-.8-1.2.8-2.1,3.5Z"/>
      <path class="cls-2" d="M921.9,727.94c-.4.3-.7,1.1-.7,1.7s.5.5,1.2-.2c.6-.6.9-1.4.7-1.7-.3-.3-.9-.2-1.2.2Z"/>
      <path class="cls-2" d="M62.2,753.24c0,.5.5,1,1.1,1,.5,0,.7-.5.4-1-.3-.6-.8-1-1.1-1-.2,0-.4.4-.4,1Z"/>
      <path class="cls-2" d="M119.2,847.74c.7.9,1.5,1.3,1.7,1.1.7-.7-.7-2.6-1.9-2.6-.6,0-.6.6.2,1.5Z"/>
      <path class="cls-2" d="M218.2,857.64c0,.2.8,1,1.8,1.7,1.5,1.3,1.6,1.2.3-.4s-2.1-2.1-2.1-1.3Z"/>
      <path class="cls-2" d="M163.2,901.54c4.7,5,5,5.2,5,3.8,0-.5-2.1-2.6-4.7-4.6l-4.8-3.8,4.5,4.6Z"/>
      <path class="cls-2" d="M308.3,918.94c4.7,4,11.8,7.3,15.5,7.3,4.2,0,5.3-1.7,1.7-2.6-1.5-.4-6.5-2.2-11-4-4.5-1.9-8.5-3.4-8.8-3.4-.4,0,.8,1.2,2.6,2.7Z"/>
      <path class="cls-2" d="M300.2,920.24c0,.5,1.1,1.2,2.5,1.6,1.4.3,2.5,1.1,2.5,1.7s.3.7.6.4c.4-.3,1.6,0,2.8.8,1.1.8,2.7,1.5,3.6,1.5.8,0-.1-1-2-2.3-1.9-1.2-3.7-2.1-4-2.1-.3.1-1.4-.5-2.5-1.2-2.3-1.6-3.5-1.8-3.5-.4Z"/>
      <path class="cls-2" d="M332.2,923.94c0,1.4,2.3,3.3,4,3.3.9,0,2.5.7,3.6,1.5,1.6,1.3,1.6,1.4.2.9-1-.3-1.8-.2-1.8.3,0,1.5,3.1,4,7.3,5.6,2,.9,3.7,1.4,3.7,1.3,0-.2,1.6,0,3.6.4,2.2.5,3.4.4,3.2-.2-.2-.5-.7-.9-1.1-.9-.4.1-2.1-.6-3.7-1.4-3.1-1.6-3.2-4.1-.1-3.1.9.4.7-.2-.8-1.4-2.2-1.9-4-2.5-7-2.1-.7.2-1.1-.2-.8-.7.5-.8-2-1.9-8-3.7-1.3-.3-2.3-.2-2.3.2Z"/>
      <path class="cls-2" d="M758.2,940.74c-.7.9-.8,1.5-.2,1.5.5,0,1.2-.7,1.6-1.5.3-.8.4-1.5.2-1.5s-.9.7-1.6,1.5Z"/>
      <path class="cls-2" d="M352.8,942.14c-.4.6,1.1,1.5,3.6,2.1,2.4.6,8.5,2.5,13.7,4.1,5.1,1.6,9.6,2.7,9.9,2.4.7-.7-.3-1.6-2.2-1.9-.9-.1-2.2-1-2.8-1.9-.8-1-4.5-2.3-9.3-3.3-4.4-.9-9-1.8-10.1-2.1-1.2-.3-2.5,0-2.8.6Z"/>
      <path class="cls-2" d="M596.5,945.44c-3.8,1.3-4.5,3.3-.8,2.4s7.5-2.5,7.5-3.1c0-.8-3.1-.4-6.7.7Z"/>
      <path class="cls-2" d="M447.2,955.74c0,.8,2.9,1.2,3.9.5.9-.5.4-.8-1.3-.8-1.4,0-2.6.2-2.6.3Z"/>
      <path class="cls-2" d="M454.8,956.44c.3.4.9.8,1.5.8.5,0,.9-.4.9-.8,0-.5-.7-.9-1.5-.9s-1.2.4-.9.9Z"/>
      <path class="cls-2" d="M270.8,966.04c2.4,2.2,10.4,6.2,10.4,5.3,0-.6-2.2-2.2-5-3.6-5-2.5-7.2-3.2-5.4-1.7Z"/>
      <path class="cls-2" d="M285.7,973.24c.3.5,1.3,1,2.1,1s1.2-.5.9-1c-.3-.6-1.3-1-2.1-1s-1.2.4-.9,1Z"/>
      <path class="cls-2" d="M709.2,984.74c-1,1.2-1,1.5.4,1.5.9,0,1.6-.7,1.6-1.5s-.2-1.5-.4-1.5-.9.7-1.6,1.5Z"/>
      <path class="cls-2" d="M316.2,989.14c0,.5,1.2,1.3,2.8,1.9,7.3,3,16.9,6.4,18.6,6.8,3.7.7.1-1.4-6.9-4-3.8-1.4-8.3-3.3-9.8-4.1-3.3-1.7-4.7-1.9-4.7-.6Z"/>
      <path class="cls-2" d="M681.5,993.94c-2.2.4-5.3,3.3-3.6,3.3,1.2,0,7.3-3,7.3-3.6,0-.2-.3-.3-.7-.3-.5.1-1.8.4-3,.6Z"/>
      <path class="cls-2" d="M395.8,1015.14c1.7.4,3.6,1.1,4.2,1.5.6.3,1.3.2,1.7-.4.3-.5.5-1,.3-1.1-.2,0-2.3-.2-4.8-.4-3.7-.3-3.9-.3-1.4.4Z"/>
      <path class="cls-2" d="M72.1,786.74c1.7,3.3,3.1,5.1,3.1,4,0-.6-1-2.1-2.1-3.5-1.3-1.7-1.7-1.8-1-.5Z"/>
    </g>
  </g>
</svg>